<?xml version="1.0" encoding="utf-8"?>
<!-- Generator: Adobe Illustrator 16.0.0, SVG Export Plug-In . SVG Version: 6.00 Build 0)  -->
<!DOCTYPE svg PUBLIC "-//W3C//DTD SVG 1.1//EN" "http://www.w3.org/Graphics/SVG/1.1/DTD/svg11.dtd">
<svg version="1.1" id="Layer_1" xmlns="http://www.w3.org/2000/svg" xmlns:xlink="http://www.w3.org/1999/xlink" x="0px" y="0px"
	 width="595.28px" height="841.89px" viewBox="0 0 595.28 841.89" enable-background="new 0 0 595.28 841.89" xml:space="preserve">
<linearGradient id="SVGID_1_" gradientUnits="userSpaceOnUse" x1="-233.7041" y1="392.3384" x2="-212.4383" y2="366.9948">
	<stop  offset="0.0011" style="stop-color:#FAE08A"/>
	<stop  offset="0.2094" style="stop-color:#FCBB46"/>
	<stop  offset="0.3765" style="stop-color:#F05475"/>
	<stop  offset="0.5238" style="stop-color:#D53992"/>
	<stop  offset="0.7394" style="stop-color:#7E50A0"/>
	<stop  offset="1" style="stop-color:#5C5DA9"/>
</linearGradient>
<path fill="url(#SVGID_1_)" d="M-209.741,387.521c0,3.023-2.452,5.476-5.476,5.476h-15.709c-3.025,0-5.476-2.453-5.476-5.476
	v-15.708c0-3.025,2.451-5.478,5.476-5.478h15.709c3.024,0,5.476,2.453,5.476,5.478V387.521z"/>
<linearGradient id="SVGID_2_" gradientUnits="userSpaceOnUse" x1="-223.0718" y1="369.6123" x2="-223.0718" y2="389.7197">
	<stop  offset="0" style="stop-color:#FFFFFF"/>
	<stop  offset="0.4131" style="stop-color:#F5F5F5"/>
	<stop  offset="1" style="stop-color:#E0E0E0"/>
</linearGradient>
<path fill="url(#SVGID_2_)" d="M-219.213,369.612h-7.717c-3.422,0-6.196,2.773-6.196,6.196v7.717c0,3.421,2.773,6.195,6.196,6.195
	h7.717c3.421,0,6.195-2.773,6.195-6.195v-7.717C-213.018,372.386-215.792,369.612-219.213,369.612z M-214.948,383.182
	c0,2.765-2.242,4.608-5.005,4.608h-6.236c-2.765,0-5.006-1.843-5.006-4.608v-7.032c0-2.764,2.241-4.608,5.006-4.608h6.236
	c2.764,0,5.005,1.845,5.005,4.608V383.182z M-222.802,374.405c-2.926,0-5.297,2.371-5.297,5.296c0,2.924,2.371,5.296,5.297,5.296
	c2.925,0,5.296-2.372,5.296-5.296C-217.506,376.775-219.877,374.405-222.802,374.405z M-222.802,382.887
	c-1.761,0-3.187-1.427-3.187-3.186c0-1.761,1.426-3.187,3.187-3.187c1.759,0,3.186,1.426,3.186,3.187
	C-219.616,381.46-221.043,382.887-222.802,382.887z M-216.526,374.322c0,0.744-0.604,1.347-1.347,1.347
	c-0.744,0-1.346-0.603-1.346-1.347s0.603-1.348,1.346-1.348C-217.13,372.975-216.526,373.579-216.526,374.322z"/>
<radialGradient id="SVGID_3_" cx="-288.2393" cy="394.6367" r="43.1138" gradientTransform="matrix(0.8329 0 0 0.8329 49.7446 70.2979)" gradientUnits="userSpaceOnUse">
	<stop  offset="0" style="stop-color:#3C5A99"/>
	<stop  offset="0.301" style="stop-color:#3C5A99"/>
	<stop  offset="1" style="stop-color:#6483C2"/>
</radialGradient>
<path fill="url(#SVGID_3_)" d="M-177.201,387.52c0,3.025-2.452,5.476-5.476,5.476h-15.709c-3.025,0-5.477-2.451-5.477-5.476v-15.708
	c0-3.024,2.452-5.476,5.477-5.476h15.709c3.024,0,5.476,2.452,5.476,5.476V387.52z"/>
<linearGradient id="XMLID_2_" gradientUnits="userSpaceOnUse" x1="-190.5322" y1="369.4038" x2="-190.5322" y2="390.1504">
	<stop  offset="0" style="stop-color:#FFFFFF"/>
	<stop  offset="0.4131" style="stop-color:#F5F5F5"/>
	<stop  offset="1" style="stop-color:#E0E0E0"/>
</linearGradient>
<path id="XMLID_974_" fill="url(#XMLID_2_)" d="M-193.147,390.15h4.178v-10.461h2.915l0.311-3.503h-3.226c0,0,0-1.308,0-1.995
	c0-0.826,0.166-1.152,0.964-1.152c0.643,0,2.261,0,2.261,0v-3.635c0,0-2.384,0-2.893,0c-3.108,0-4.51,1.369-4.51,3.99
	c0,2.283,0,2.793,0,2.793h-2.173v3.546h2.173V390.15z"/>
<path fill="#2E465C" d="M-111.932,387.521c0,3.023-2.452,5.476-5.478,5.476h-15.707c-3.025,0-5.478-2.453-5.478-5.476v-15.708
	c0-3.025,2.453-5.478,5.478-5.478h15.707c3.025,0,5.478,2.453,5.478,5.478V387.521z"/>
<linearGradient id="XMLID_3_" gradientUnits="userSpaceOnUse" x1="-125.0405" y1="370.8857" x2="-125.0405" y2="388.813">
	<stop  offset="0" style="stop-color:#FFFFFF"/>
	<stop  offset="0.4131" style="stop-color:#F5F5F5"/>
	<stop  offset="1" style="stop-color:#E0E0E0"/>
</linearGradient>
<path id="XMLID_973_" fill="url(#XMLID_3_)" d="M-128.588,384.523c0,0.819,0.085,1.443,0.257,1.875
	c0.171,0.43,0.48,0.837,0.924,1.221c0.444,0.382,0.981,0.677,1.611,0.883c0.629,0.207,1.353,0.311,2.172,0.311
	c0.722,0,1.393-0.073,2.014-0.217c0.62-0.146,1.314-0.397,2.08-0.758v-2.819c-0.898,0.59-1.801,0.885-2.709,0.885
	c-0.51,0-0.964-0.119-1.36-0.357c-0.299-0.175-0.504-0.411-0.614-0.706c-0.11-0.295-0.165-0.962-0.165-2.002v-4.599h4.257v-2.813
	h-4.257v-4.541h-2.539c-0.115,0.924-0.324,1.684-0.626,2.282c-0.302,0.598-0.704,1.11-1.205,1.537
	c-0.5,0.426-1.101,0.753-1.803,0.982v2.554h1.963V384.523z"/>
<path fill="#EE427F" d="M-46.981,387.52c0,3.025-2.453,5.477-5.476,5.477h-15.708c-3.025,0-5.477-2.452-5.477-5.477v-15.708
	c0-3.025,2.452-5.476,5.477-5.476h15.708c3.023,0,5.476,2.451,5.476,5.476V387.52z"/>
<g>
	<g>
		<linearGradient id="SVGID_4_" gradientUnits="userSpaceOnUse" x1="-60.312" y1="371.9775" x2="-60.312" y2="387.5879">
			<stop  offset="0" style="stop-color:#FFFFFF"/>
			<stop  offset="0.4131" style="stop-color:#F5F5F5"/>
			<stop  offset="1" style="stop-color:#E0E0E0"/>
		</linearGradient>
		<path fill="url(#SVGID_4_)" d="M-59.6,372.009c-4.862-0.433-8.918,3.623-8.485,8.486c0.333,3.727,3.334,6.729,7.061,7.061
			c4.863,0.433,8.919-3.624,8.486-8.486C-52.871,375.343-55.873,372.342-59.6,372.009z M-55.18,375.937
			c0.742,0.988,1.206,2.195,1.274,3.506c0.004,0.078-0.068,0.138-0.145,0.122c-1.435-0.291-2.784-0.343-4.055-0.158
			c-0.053,0.008-0.104-0.021-0.125-0.071c-0.146-0.346-0.295-0.679-0.446-1.001c-0.028-0.06-0.002-0.13,0.059-0.157
			c1.188-0.541,2.288-1.269,3.258-2.251C-55.309,375.875-55.224,375.879-55.18,375.937z M-56.324,374.929
			c-0.856,0.877-1.833,1.535-2.926,2.025c-0.057,0.026-0.125,0.002-0.155-0.053c-0.765-1.398-1.527-2.489-2.111-3.244
			c-0.055-0.07-0.016-0.176,0.072-0.191c0.368-0.066,0.746-0.101,1.133-0.101c1.5,0,2.883,0.518,3.977,1.384
			C-56.279,374.793-56.274,374.878-56.324,374.929z M-62.981,374.047c0.542,0.654,1.382,1.77,2.241,3.301
			c0.038,0.067,0.004,0.154-0.07,0.176c-1.647,0.48-3.512,0.69-5.582,0.769c-0.08,0.003-0.144-0.073-0.123-0.15
			c0.48-1.814,1.735-3.316,3.39-4.126C-63.076,373.993-63.017,374.005-62.981,374.047z M-66.61,379.689
			c2.226-0.071,4.448-0.29,6.485-0.935c0.057-0.018,0.118,0.008,0.144,0.062c0.123,0.258,0.244,0.525,0.363,0.8
			c0.028,0.064-0.006,0.139-0.073,0.161c-2.025,0.658-3.831,1.996-5.443,4.023c-0.045,0.058-0.132,0.063-0.182,0.009
			c-0.904-0.983-1.389-2.446-1.411-3.999C-66.728,379.746-66.675,379.692-66.61,379.689z M-64.136,384.775
			c1.487-1.906,3.124-3.135,4.972-3.709c0.062-0.019,0.128,0.014,0.149,0.075c0.478,1.339,0.881,2.836,1.137,4.477
			c0.008,0.056-0.022,0.111-0.075,0.132c-0.731,0.291-1.527,0.451-2.36,0.451c-1.422,0-2.737-0.466-3.802-1.252
			C-64.168,384.908-64.178,384.829-64.136,384.775z M-56.608,384.803c-0.254-1.412-0.611-2.718-1.026-3.911
			c-0.025-0.072,0.023-0.15,0.1-0.158c1.065-0.11,2.198-0.032,3.406,0.232c0.064,0.014,0.107,0.079,0.094,0.144
			c-0.322,1.525-1.188,2.852-2.385,3.769C-56.49,384.933-56.592,384.891-56.608,384.803z"/>
	</g>
</g>
<path fill="#3DA7DE" d="M-14.546,387.521c0,3.023-2.453,5.476-5.478,5.476H-35.73c-3.025,0-5.478-2.453-5.478-5.476v-15.708
	c0-3.025,2.453-5.478,5.478-5.478h15.707c3.025,0,5.478,2.453,5.478,5.478V387.521z"/>
<linearGradient id="XMLID_4_" gradientUnits="userSpaceOnUse" x1="-27.856" y1="371.5571" x2="-27.856" y2="387.7749">
	<stop  offset="0" style="stop-color:#FFFFFF"/>
	<stop  offset="0.4131" style="stop-color:#F5F5F5"/>
	<stop  offset="1" style="stop-color:#E0E0E0"/>
</linearGradient>
<path id="XMLID_970_" fill="url(#XMLID_4_)" d="M-35.463,379.672c0,4.198,3.403,7.601,7.601,7.601c0.487,0,0.963-0.047,1.424-0.135
	c0.669,0.404,1.453,0.637,2.291,0.637c2.45-0.001,4.436-1.987,4.436-4.437c0-0.859-0.245-1.66-0.667-2.34
	c0.076-0.431,0.117-0.874,0.117-1.326c0-4.198-3.403-7.601-7.601-7.601c-0.478,0-0.945,0.046-1.4,0.13
	c-0.671-0.409-1.46-0.644-2.303-0.644c-2.45,0-4.437,1.986-4.437,4.436c0,0.854,0.242,1.651,0.66,2.328
	C-35.42,378.76-35.463,379.21-35.463,379.672z M-27.78,374.271c2.452,0.144,3.887,1.222,4.026,2.229
	c0.068,0.658-0.369,1.17-1.128,1.17c-1.109,0-1.222-1.479-3.131-1.479c-0.861,0-1.588,0.358-1.588,1.135
	c0,1.623,6.118,0.681,6.118,4.254c0,2.06-1.649,3.41-4.11,3.41c-2.165,0-4.341-0.981-4.33-2.671c0.003-0.51,0.384-0.978,0.89-0.978
	c1.275,0,1.263,1.894,3.293,1.894c1.424,0,1.91-0.777,1.91-1.318c0-1.956-6.155-0.756-6.155-4.434
	C-31.985,375.493-30.35,374.12-27.78,374.271z"/>
<path fill="#3383C5" d="M50.116,387.521c0,3.025-2.451,5.476-5.476,5.476H28.932c-3.025,0-5.477-2.451-5.477-5.476v-15.708
	c0-3.024,2.452-5.477,5.477-5.477H44.64c3.025,0,5.476,2.453,5.476,5.477V387.521z"/>
<linearGradient id="XMLID_5_" gradientUnits="userSpaceOnUse" x1="37.0083" y1="372.8247" x2="37.0083" y2="388.5249">
	<stop  offset="0" style="stop-color:#FFFFFF"/>
	<stop  offset="0.4131" style="stop-color:#F5F5F5"/>
	<stop  offset="1" style="stop-color:#E0E0E0"/>
</linearGradient>
<path id="XMLID_964_" transform="translate(-1)" fill="url(#XMLID_5_)" d="M33.377,372.825l4.635,2.953l-4.635,2.953l-4.635-2.953
	L33.377,372.825z M38.005,375.777l4.635,2.953l4.635-2.953l-4.634-2.953L38.005,375.777z M28.743,381.641l4.635,2.953l4.635-2.953
	l-4.635-2.953L28.743,381.641z M42.64,378.688l-4.635,2.953l4.635,2.953l4.635-2.953L42.64,378.688z M33.407,385.572l4.635,2.953
	l4.635-2.953l-4.635-2.952L33.407,385.572z"/>
<path fill="#D78F28" d="M115.363,387.521c0,3.024-2.452,5.476-5.476,5.476h-15.71c-3.024,0-5.475-2.452-5.475-5.476v-15.709
	c0-3.024,2.451-5.478,5.475-5.478h15.71c3.024,0,5.476,2.453,5.476,5.478V387.521z"/>
<path fill="#FFFFFF" d="M93.03,382.729c-0.007,0.044-0.038,0.075-0.078,0.075c-0.041,0-0.072-0.031-0.078-0.076l-0.142-1.064
	l0.142-1.082c0.006-0.045,0.038-0.076,0.078-0.076c0.04,0,0.071,0.031,0.078,0.076l0.169,1.083L93.03,382.729z M93.754,383.375
	c-0.006,0.047-0.04,0.079-0.081,0.079c-0.041,0-0.075-0.032-0.081-0.079l-0.191-1.711l0.191-1.75
	c0.006-0.044,0.041-0.079,0.081-0.079c0.041,0,0.075,0.033,0.081,0.079l0.218,1.75L93.754,383.375z M94.536,383.665
	c-0.006,0.056-0.047,0.095-0.098,0.095c-0.051,0-0.092-0.04-0.098-0.095l-0.182-2l0.182-2.076c0.004-0.057,0.046-0.097,0.098-0.097
	c0.05,0,0.092,0.04,0.098,0.097l0.206,2.076L94.536,383.665z M95.325,383.728c-0.005,0.064-0.055,0.112-0.115,0.112
	c-0.061,0-0.11-0.048-0.115-0.112l-0.172-2.063l0.172-2.133c0.004-0.064,0.054-0.112,0.115-0.112c0.06,0,0.11,0.048,0.115,0.112
	l0.195,2.133L95.325,383.728z M96.119,383.745c-0.004,0.074-0.062,0.129-0.13,0.129c-0.07,0-0.126-0.055-0.131-0.129l-0.162-2.081
	l0.162-1.979c0.005-0.074,0.061-0.129,0.131-0.129s0.126,0.055,0.13,0.128l0.184,1.98L96.119,383.745z M96.92,383.746L96.92,383.746
	c-0.005,0.081-0.07,0.146-0.148,0.146c-0.078,0-0.143-0.065-0.147-0.146l-0.151-2.081l0.151-3.22
	c0.004-0.082,0.07-0.147,0.147-0.147c0.079,0,0.144,0.065,0.148,0.146l0.171,3.221L96.92,383.746z M97.716,383.745v-0.001
	c-0.005,0.09-0.077,0.163-0.166,0.163c-0.087,0-0.159-0.072-0.163-0.163l-0.143-2.067l0.143-3.957
	c0.004-0.091,0.076-0.163,0.163-0.163c0.088,0,0.16,0.072,0.166,0.163l0.161,3.957L97.716,383.745z M98.541,383.712L98.541,383.712
	c-0.004,0.1-0.083,0.179-0.181,0.179s-0.177-0.079-0.181-0.179l-0.132-2.046c0,0,0.132-4.286,0.132-4.287
	c0.004-0.1,0.083-0.179,0.181-0.179s0.177,0.08,0.181,0.179l0.149,4.287L98.541,383.712z M99.361,383.699
	c-0.003,0.109-0.09,0.196-0.197,0.196c-0.107,0-0.193-0.086-0.197-0.195l-0.124-2.034l0.124-4.431
	c0.004-0.11,0.09-0.196,0.197-0.196c0.107,0,0.194,0.086,0.197,0.196l0.138,4.431L99.361,383.699z M100.187,383.681L100.187,383.681
	c-0.004,0.118-0.097,0.211-0.214,0.211c-0.116,0-0.211-0.094-0.213-0.211l-0.114-2.015l0.113-4.317
	c0.003-0.12,0.098-0.213,0.214-0.213c0.118,0,0.21,0.093,0.214,0.213l0.127,4.317L100.187,383.681z M101.019,383.669v-0.002
	c-0.002,0.129-0.104,0.229-0.23,0.229c-0.127,0-0.228-0.1-0.231-0.227l-0.103-2.003l0.103-4.159c0.003-0.129,0.104-0.23,0.231-0.23
	c0.126,0,0.228,0.101,0.23,0.23l0.116,4.16L101.019,383.669z M101.868,383.458l-0.01,0.196c-0.001,0.068-0.03,0.13-0.074,0.175
	c-0.045,0.044-0.107,0.072-0.172,0.072c-0.077,0-0.144-0.035-0.19-0.09c-0.034-0.04-0.055-0.091-0.057-0.146
	c-0.001-0.002-0.001-0.006-0.001-0.009c0,0-0.095-1.986-0.095-1.99l0.094-4.902l0.001-0.047c0.001-0.086,0.046-0.162,0.114-0.207
	c0.038-0.025,0.083-0.04,0.134-0.04c0.049,0,0.096,0.016,0.135,0.042c0.066,0.044,0.109,0.119,0.111,0.204l0.104,4.951
	L101.868,383.458z M102.693,383.629v-0.003c-0.001,0.145-0.121,0.263-0.264,0.263c-0.144,0-0.262-0.118-0.264-0.262l-0.054-0.966
	l-0.054-0.992l0.108-5.373v-0.027c0-0.082,0.039-0.154,0.098-0.204c0.045-0.037,0.104-0.06,0.166-0.06
	c0.05,0,0.096,0.014,0.135,0.037c0.075,0.047,0.127,0.13,0.13,0.226l0.117,5.4L102.693,383.629z M109.821,383.894
	c0,0-6.637,0-6.644,0c-0.144-0.015-0.257-0.129-0.259-0.276v-7.606c0.002-0.14,0.051-0.212,0.231-0.282
	c0.465-0.18,0.992-0.287,1.534-0.287c2.21,0,4.02,1.695,4.212,3.854c0.285-0.119,0.599-0.186,0.927-0.186
	c1.323,0,2.396,1.073,2.396,2.397S111.145,383.894,109.821,383.894L109.821,383.894z M109.821,383.894"/>
<path fill="#F17922" d="M17.724,387.521c0,3.024-2.452,5.476-5.476,5.476H-3.46c-3.025,0-5.477-2.452-5.477-5.476v-15.708
	c0-3.025,2.452-5.477,5.477-5.477h15.708c3.024,0,5.476,2.451,5.476,5.477V387.521z"/>
<linearGradient id="SVGID_5_" gradientUnits="userSpaceOnUse" x1="4.5049" y1="372.4551" x2="4.5049" y2="387.4873">
	<stop  offset="0" style="stop-color:#FFFFFF"/>
	<stop  offset="0.4131" style="stop-color:#F5F5F5"/>
	<stop  offset="1" style="stop-color:#E0E0E0"/>
</linearGradient>
<path fill="url(#SVGID_5_)" d="M11.048,378.092h-0.843c-0.516,0-0.969-0.437-1.003-0.939c0-2.681-2.162-4.697-4.863-4.697H1.876
	c-2.697,0-4.885,2.172-4.887,4.854v5.326c0,2.681,2.19,4.853,4.887,4.853h5.262c2.7,0,4.883-2.171,4.883-4.853v-3.44
	C12.021,378.658,11.589,378.092,11.048,378.092z M2,376.213h2.505c0.688,0,1.252,0.563,1.252,1.252s-0.563,1.252-1.252,1.252H2
	c-0.689,0-1.253-0.563-1.253-1.252S1.31,376.213,2,376.213z M7.01,383.729H2c-0.689,0-1.253-0.563-1.253-1.252
	c0-0.689,0.563-1.253,1.253-1.253h5.01c0.689,0,1.253,0.564,1.253,1.253C8.263,383.165,7.699,383.729,7.01,383.729z"/>
<path fill="#5171B7" d="M148.541,387.521c0,3.024-2.452,5.476-5.476,5.476h-15.71c-3.024,0-5.476-2.452-5.476-5.476v-15.709
	c0-3.024,2.451-5.478,5.476-5.478h15.71c3.024,0,5.476,2.453,5.476,5.478V387.521z"/>
<linearGradient id="SVGID_6_" gradientUnits="userSpaceOnUse" x1="135.3887" y1="376.7808" x2="135.3887" y2="387.3806">
	<stop  offset="0" style="stop-color:#FFFFFF"/>
	<stop  offset="0.4131" style="stop-color:#F5F5F5"/>
	<stop  offset="1" style="stop-color:#E0E0E0"/>
</linearGradient>
<path fill="url(#SVGID_6_)" d="M128.599,374.886h-2.75c0,0-1.064-0.104-0.674,0.778c0.389,0.882,2.568,5.422,4.073,7.135
	c1.505,1.712,3.295,3.191,6.227,3.216c1.479-0.051,1.634-0.181,1.634-1.296c0-1.117,0.753-2.049,1.764-0.935
	c1.012,1.115,1.142,1.323,1.531,1.661c0.389,0.337,0.727,0.597,1.946,0.597c1.22,0,2.516-0.027,2.516-0.027s1.557-0.232,0.389-1.634
	c-1.167-1.4-2.439-2.517-2.568-2.646c-0.129-0.13-0.831-0.856-0.104-1.687c0.727-0.83,2.438-3.087,2.88-3.995
	c0.441-0.908,0.156-1.116-0.622-1.116c-0.779,0-3.244,0-3.244,0s-0.726-0.233-1.038,0.675c-0.311,0.907-1.115,2.828-2.464,4.15
	c-0.467,0.441-0.985,0.26-1.012-0.959c-0.026-1.219,0.026-3.295,0.026-3.295s0.103-1.142-1.297-1.167
	c-1.402-0.026-2.621,0.025-2.621,0.025s-1.168,0.079-1.322,0.779c0.596-0.051,1.167,0.337,1.245,1.349
	c0.078,1.012,0.13,2.464-0.078,2.984c-0.208,0.519-0.545,0.907-1.427-0.26c-0.881-1.167-1.739-2.802-1.92-3.269
	C129.507,375.482,129.248,374.964,128.599,374.886z"/>
<path fill="#1C1C1C" d="M180.727,387.724c0,3.023-2.453,5.476-5.477,5.476h-15.709c-3.025,0-5.476-2.453-5.476-5.476v-15.708
	c0-3.025,2.451-5.478,5.476-5.478h15.709c3.024,0,5.477,2.453,5.477,5.478V387.724z"/>
<path id="XMLID_959_" fill="#48B75B" d="M167.442,371.562c-4.612,0-8.351,3.739-8.351,8.351s3.739,8.352,8.351,8.352
	s8.351-3.739,8.351-8.352S172.054,371.562,167.442,371.562z M171.284,383.629c-0.167,0.25-0.459,0.334-0.71,0.167
	c-1.962-1.211-4.426-1.461-7.349-0.793c-0.292,0.083-0.543-0.125-0.626-0.375c-0.083-0.292,0.125-0.543,0.376-0.626
	c3.173-0.71,5.929-0.417,8.101,0.918C171.367,383.045,171.409,383.379,171.284,383.629z M172.286,381.333
	c-0.208,0.292-0.584,0.417-0.877,0.209c-2.255-1.378-5.679-1.796-8.309-0.961c-0.334,0.083-0.71-0.083-0.794-0.417
	c-0.083-0.334,0.084-0.709,0.418-0.793c3.048-0.918,6.806-0.459,9.395,1.127C172.369,380.623,172.495,381.041,172.286,381.333z
	 M172.369,378.995c-2.672-1.587-7.14-1.754-9.688-0.96c-0.417,0.125-0.835-0.125-0.96-0.501c-0.125-0.417,0.125-0.835,0.501-0.96
	c2.964-0.877,7.85-0.71,10.94,1.127c0.375,0.208,0.501,0.71,0.292,1.085C173.246,379.078,172.745,379.203,172.369,378.995z"/>
<path fill="#24B8EC" d="M213.266,387.656c0,3.025-2.452,5.477-5.476,5.477h-15.709c-3.025,0-5.477-2.451-5.477-5.477v-15.708
	c0-3.025,2.452-5.476,5.477-5.476h15.709c3.024,0,5.476,2.451,5.476,5.476V387.656z"/>
<linearGradient id="XMLID_6_" gradientUnits="userSpaceOnUse" x1="199.6011" y1="373.3931" x2="199.6011" y2="388.3281">
	<stop  offset="0" style="stop-color:#FFFFFF"/>
	<stop  offset="0.4131" style="stop-color:#F5F5F5"/>
	<stop  offset="1" style="stop-color:#E0E0E0"/>
</linearGradient>
<path id="XMLID_958_" fill="url(#XMLID_6_)" d="M205.715,373.396c-2.392-0.077-4.012,1.273-4.861,4.052
	c0.438-0.188,0.864-0.283,1.278-0.283c0.877,0,1.265,0.494,1.162,1.48c-0.051,0.596-0.439,1.464-1.162,2.606
	c-0.724,1.142-1.266,1.712-1.627,1.712c-0.466,0-0.892-0.878-1.278-2.639c-0.131-0.517-0.363-1.835-0.698-3.957
	c-0.311-1.966-1.137-2.884-2.48-2.755c-0.569,0.052-1.421,0.568-2.558,1.55c-0.827,0.749-1.667,1.499-2.519,2.247l0.813,1.047
	c0.773-0.542,1.226-0.814,1.354-0.814c0.593,0,1.146,0.931,1.663,2.788c0.464,1.703,0.929,3.406,1.394,5.11
	c0.695,1.858,1.546,2.787,2.552,2.787c1.624,0,3.609-1.525,5.956-4.577c2.269-2.921,3.443-5.222,3.52-6.903
	C208.324,374.599,207.488,373.449,205.715,373.396z"/>
<path fill="#84368C" d="M245.658,387.655c0,3.025-2.453,5.478-5.476,5.478h-15.708c-3.025,0-5.477-2.453-5.477-5.478v-15.708
	c0-3.025,2.452-5.477,5.477-5.477h15.708c3.023,0,5.476,2.452,5.476,5.477V387.655z"/>
<linearGradient id="SVGID_7_" gradientUnits="userSpaceOnUse" x1="232.3276" y1="373.3999" x2="232.3276" y2="388.3208">
	<stop  offset="0" style="stop-color:#FFFFFF"/>
	<stop  offset="0.4131" style="stop-color:#F5F5F5"/>
	<stop  offset="1" style="stop-color:#E0E0E0"/>
</linearGradient>
<path fill="url(#SVGID_7_)" d="M238.256,377.109c-0.076,0.021-0.234,0.152-0.477,0.386l-0.852,0.889l-1.065,1.18
	c-0.371,0.421-0.708,0.842-1.018,1.258c-0.311,0.412-0.585,0.776-0.819,1.096c-0.237,0.315-0.386,0.557-0.454,0.732
	c-0.015,0.087-0.023,0.338-0.023,0.75c0,0.416,0.006,0.869,0.012,1.359c0.009,0.492,0.015,0.951,0.024,1.39
	c0.008,0.434,0.017,0.723,0.034,0.868c0.06,0.021,0.211,0.03,0.457,0.03h0.77c0.278,0,0.539,0.009,0.784,0.018
	c0.246,0.012,0.413,0.03,0.504,0.057l-0.023,1.161c-0.088,0-0.287-0.004-0.6-0.018c-0.311-0.009-0.676-0.014-1.089-0.014h-2.458
	c-0.167,0-0.419,0.005-0.749,0.014c-0.328,0.014-0.68,0.023-1.058,0.035c-0.376,0.009-0.731,0.018-1.064,0.018h-0.749l0.134-1.105
	h0.465c0.226,0,0.455-0.004,0.688-0.014c0.234-0.004,0.458-0.038,0.667-0.092c0.213-0.057,0.366-0.158,0.465-0.303
	c0.044-0.065,0.073-0.289,0.088-0.674c0.014-0.382,0.021-0.825,0.021-1.316c0-0.496,0.005-0.968,0.008-1.416
	c0.006-0.446,0.012-0.75,0.021-0.899c0.018-0.092-0.073-0.314-0.275-0.67c-0.202-0.356-0.448-0.794-0.74-1.311l-0.951-1.684
	l-0.987-1.745l-0.904-1.381c-0.275-0.413-0.492-0.694-0.646-0.842h-2.376V373.4h7.828v0.11h0.021l-0.021,0.254v1.105h-2.391
	l0.898,1.685l0.919,1.722l0.815,1.526l0.635,1.197l3.187-4.043h-1.938l-0.249-1.469h6.91l-0.056,0.097h0.035l-0.515,0.982h-0.023
	l-0.205,0.39h-1.206c-0.074,0.048-0.147,0.079-0.217,0.092C238.378,377.07,238.314,377.087,238.256,377.109L238.256,377.109z"/>
<path fill="#19A94A" d="M278.536,387.657c0,3.023-2.453,5.476-5.478,5.476h-15.707c-3.025,0-5.478-2.453-5.478-5.476v-15.708
	c0-3.025,2.453-5.478,5.478-5.478h15.707c3.025,0,5.478,2.453,5.478,5.478V387.657z"/>
<g>
	<linearGradient id="SVGID_8_" gradientUnits="userSpaceOnUse" x1="262.3696" y1="371.5068" x2="262.3696" y2="385.1094">
		<stop  offset="0" style="stop-color:#FFFFFF"/>
		<stop  offset="0.4131" style="stop-color:#F5F5F5"/>
		<stop  offset="1" style="stop-color:#E0E0E0"/>
	</linearGradient>
	<path fill="url(#SVGID_8_)" d="M264.301,378.787c2.027-2.027,5.265-1.922,5.265-1.922s-1.17-5.829-7.876-5.327
		c-6.706,0.501-8.69,8.147-3.802,11.198l-0.626,1.942c0,0-0.313,0.752,0.481,0.271c0.793-0.48,2.089-1.211,2.089-1.211
		s1.316,0.563,2.883,0.376C262.337,383.341,262.275,380.813,264.301,378.787z M265.283,374.963c0.462,0,0.835,0.375,0.835,0.835
		c0,0.462-0.374,0.836-0.835,0.836c-0.461,0-0.835-0.374-0.835-0.836C264.448,375.338,264.822,374.963,265.283,374.963z
		 M259.58,376.635c-0.461,0-0.836-0.374-0.836-0.836c0-0.461,0.375-0.835,0.836-0.835s0.836,0.375,0.836,0.835
		C260.416,376.261,260.042,376.635,259.58,376.635z"/>
	<linearGradient id="SVGID_9_" gradientUnits="userSpaceOnUse" x1="269.2559" y1="377.3862" x2="269.2559" y2="388.6548">
		<stop  offset="0" style="stop-color:#FFFFFF"/>
		<stop  offset="0.4131" style="stop-color:#F5F5F5"/>
		<stop  offset="1" style="stop-color:#E0E0E0"/>
	</linearGradient>
	<path fill="url(#SVGID_9_)" d="M275.458,382.61c-0.021-2.632-2.863-6.163-7.897-4.993c-5.227,1.215-6.023,7.482-1.776,9.568
		c3.615,1.776,6.017,0.376,6.017,0.376l1.588,0.94c0,0,0.585,0.459,0.418-0.209c-0.167-0.668-0.46-1.608-0.46-1.608
		S275.478,385.204,275.458,382.61z M267.059,381.46c-0.438,0-0.794-0.355-0.794-0.793s0.355-0.794,0.794-0.794
		s0.794,0.355,0.794,0.794S267.498,381.46,267.059,381.46z M271.425,381.46c-0.438,0-0.794-0.355-0.794-0.793
		s0.355-0.794,0.794-0.794s0.794,0.355,0.794,0.794S271.864,381.46,271.425,381.46z"/>
</g>
<path fill="#874D2E" d="M310.904,387.657c0,3.025-2.451,5.476-5.476,5.476H289.72c-3.024,0-5.477-2.451-5.477-5.476v-15.708
	c0-3.024,2.453-5.478,5.477-5.478h15.709c3.024,0,5.476,2.453,5.476,5.478V387.657z"/>
<linearGradient id="SVGID_10_" gradientUnits="userSpaceOnUse" x1="297.6851" y1="371.5068" x2="297.6851" y2="389.1001">
	<stop  offset="0" style="stop-color:#FFFFFF"/>
	<stop  offset="0.4131" style="stop-color:#F5F5F5"/>
	<stop  offset="1" style="stop-color:#E0E0E0"/>
</linearGradient>
<path fill="url(#SVGID_10_)" d="M303.08,371.507h-10.792c-1.875,0-3.4,1.525-3.4,3.399v3.592v1.322v5.88
	c0,1.875,1.525,3.399,3.4,3.399h10.792c1.875,0,3.402-1.525,3.402-3.399v-5.878v-1.324v-3.592
	C306.482,373.032,304.955,371.507,303.08,371.507z M304.057,373.535l0.389-0.002v0.388v2.593l-2.971,0.01l-0.012-2.981
	L304.057,373.535z M295.174,378.499c0.564-0.78,1.478-1.291,2.511-1.291s1.947,0.511,2.51,1.291
	c0.068,0.094,0.129,0.193,0.187,0.295c0.252,0.447,0.399,0.962,0.399,1.51c0,1.707-1.39,3.096-3.096,3.096
	c-1.708,0-3.097-1.389-3.097-3.096c0-0.548,0.148-1.063,0.4-1.51C295.046,378.692,295.106,378.592,295.174,378.499z
	 M304.768,385.701c0,0.93-0.757,1.686-1.688,1.686h-10.792c-0.93,0-1.686-0.756-1.686-1.686v-6.291v-0.912h2.626
	c-0.066,0.161-0.122,0.327-0.169,0.496c-0.119,0.416-0.184,0.854-0.184,1.309c0,2.653,2.158,4.811,4.811,4.811
	c2.653,0,4.811-2.158,4.811-4.811c0-0.454-0.066-0.893-0.186-1.309c-0.049-0.169-0.104-0.335-0.17-0.496h2.627v0.913V385.701z"/>
<path fill="#1C4361" d="M375.922,387.394c0,3.023-2.453,5.476-5.479,5.476h-15.707c-3.024,0-5.477-2.453-5.477-5.476v-15.708
	c0-3.025,2.452-5.478,5.477-5.478h15.707c3.025,0,5.479,2.453,5.479,5.478V387.394z"/>
<linearGradient id="SVGID_11_" gradientUnits="userSpaceOnUse" x1="362.3213" y1="373.2559" x2="362.3213" y2="388.1768">
	<stop  offset="0" style="stop-color:#FFFFFF"/>
	<stop  offset="0.4131" style="stop-color:#F5F5F5"/>
	<stop  offset="1" style="stop-color:#E0E0E0"/>
</linearGradient>
<path fill-rule="evenodd" clip-rule="evenodd" fill="url(#SVGID_11_)" d="M363.588,373.259c1.523,0.037,2.945,0.484,4.325,1.098
	c1.1,0.49,2.088,1.157,3.007,1.929c0.188,0.156,0.438,0.292,0.398,0.607c-0.465,0.447-0.94,0.888-1.39,1.352
	c-0.175,0.182-0.271,0.174-0.456,0.011c-1.662-1.516-3.622-2.413-5.846-2.664c-3.234-0.363-6.091,0.544-8.527,2.721
	c-0.063,0.059-0.123,0.117-0.31,0.29c-0.489-0.542-0.976-1.091-1.462-1.641c-0.054-0.279,0.17-0.413,0.335-0.557
	c1.011-0.893,2.134-1.618,3.372-2.149c1.01-0.442,2.051-0.77,3.143-0.93c0.336-0.048,0.676-0.066,1.019-0.066
	c0.278,0.003,0.835,0,1.112,0C362.629,373.259,363.269,373.252,363.588,373.259z M362.65,388.177
	c0.042-0.017,0.082-0.049,0.127-0.063c1.343-0.273,2.146-1.601,1.763-2.906c-0.375-1.278-1.784-1.975-3.036-1.496
	c-1.267,0.475-1.851,1.943-1.258,3.163c0.357,0.733,0.984,1.105,1.745,1.302C362.211,388.177,362.43,388.177,362.65,388.177z
	 M355.943,379.18c-0.154,0.138-0.164,0.208-0.01,0.352c0.428,0.402,0.846,0.814,1.248,1.244c0.171,0.181,0.271,0.17,0.449,0.007
	c1.137-1.031,2.485-1.618,4.005-1.759c2.053-0.185,3.878,0.4,5.435,1.764c0.146,0.132,0.217,0.118,0.342-0.011
	c0.398-0.416,0.797-0.833,1.221-1.217c0.216-0.196,0.203-0.306-0.012-0.495c-1.807-1.566-3.902-2.336-6.255-2.356
	C359.895,376.734,357.764,377.548,355.943,379.18z M366.246,381.929c0.098-0.099,0.143-0.154,0.01-0.277
	c-2.055-1.971-5.836-1.964-7.871,0.015c-0.132,0.13-0.129,0.186,0,0.308c0.424,0.403,0.842,0.816,1.25,1.236
	c0.139,0.141,0.21,0.104,0.345-0.005c1.45-1.198,3.419-1.143,4.853,0.143C365.318,382.861,365.781,382.393,366.246,381.929z"/>
<path fill="#DF4926" d="M408.191,387.393c0,3.025-2.451,5.477-5.477,5.477h-15.708c-3.024,0-5.478-2.452-5.478-5.477v-15.708
	c0-3.025,2.453-5.477,5.478-5.477h15.708c3.025,0,5.477,2.451,5.477,5.477V387.393z"/>
<linearGradient id="SVGID_12_" gradientUnits="userSpaceOnUse" x1="394.9727" y1="371.3345" x2="394.9727" y2="387.5918">
	<stop  offset="0" style="stop-color:#FFFFFF"/>
	<stop  offset="0.4131" style="stop-color:#F5F5F5"/>
	<stop  offset="1" style="stop-color:#E0E0E0"/>
</linearGradient>
<path fill="url(#SVGID_12_)" d="M395.402,371.334c0.144,0.11,0.268,0.245,0.404,0.363c1.236,1.167,2.371,2.457,3.283,3.896
	c0.883,1.393,1.561,2.934,1.863,4.56c0.166,0.891,0.221,1.806,0.123,2.708c-0.043,0.377-0.109,0.754-0.229,1.115
	c-0.169,0.522-0.391,1.03-0.693,1.49c-0.262,0.396-0.588,0.75-0.965,1.037c-0.416,0.313-0.89,0.543-1.383,0.702
	c-0.613,0.196-1.256,0.293-1.896,0.345c-0.765,0.057-1.533,0.068-2.297-0.029c-0.863-0.107-1.721-0.337-2.49-0.752
	c-0.713-0.383-1.338-0.946-1.74-1.654c-0.466-0.809-0.619-1.768-0.546-2.693c0.075-0.979,0.388-1.93,0.801-2.817
	c0.358-0.763,0.796-1.485,1.282-2.172c0.416-0.582,0.863-1.14,1.352-1.663c0.008-0.006,0.025-0.021,0.035-0.027
	c-0.008,0.44,0.034,0.883,0.16,1.306c0.129,0.432,0.346,0.839,0.635,1.186c0.018,0.021,0.029,0.051,0.062,0.055
	c0.626-0.47,1.218-0.997,1.679-1.631c0.479-0.655,0.799-1.422,0.921-2.225C395.926,373.394,395.786,372.313,395.402,371.334z"/>
<path fill="#D78F28" d="M538.783,387.385c0,3.024-2.451,5.476-5.477,5.476h-15.709c-3.025,0-5.477-2.452-5.477-5.476v-15.709
	c0-3.025,2.451-5.478,5.477-5.478h15.709c3.025,0,5.477,2.453,5.477,5.478V387.385z"/>
<linearGradient id="SVGID_13_" gradientUnits="userSpaceOnUse" x1="525.5605" y1="370.7329" x2="525.5605" y2="388.3438">
	<stop  offset="0" style="stop-color:#FFFFFF"/>
	<stop  offset="0.4131" style="stop-color:#F5F5F5"/>
	<stop  offset="1" style="stop-color:#E0E0E0"/>
</linearGradient>
<path fill="url(#SVGID_13_)" d="M535.291,379.056c0-1.398-1.135-2.533-2.533-2.533c-0.721,0-1.369,0.303-1.831,0.787
	c-1.317-0.8-2.97-1.314-4.776-1.411l0.94-3.613l1.978,0.522c0.092,0.958,0.898,1.706,1.88,1.706c1.044,0,1.89-0.846,1.89-1.89
	c0-1.043-0.846-1.89-1.89-1.89c-0.712,0-1.333,0.395-1.655,0.978l-2.475-0.683c-0.672-0.127-0.714,0.292-0.714,0.292l-1.241,4.58
	c-1.753,0.1-3.355,0.589-4.649,1.351c-0.462-0.496-1.118-0.807-1.851-0.807c-1.398,0-2.533,1.133-2.533,2.532
	c0,0.952,0.524,1.778,1.3,2.212c-0.061,0.301-0.093,0.61-0.093,0.924c0,3.443,3.797,6.232,8.484,6.232
	c4.684,0,8.482-2.789,8.482-6.232c0-0.274-0.026-0.545-0.074-0.811C534.738,380.877,535.291,380.032,535.291,379.056z
	 M521.152,380.492c0-0.822,0.666-1.487,1.488-1.487s1.488,0.665,1.488,1.487c0,0.821-0.666,1.487-1.488,1.487
	S521.152,381.313,521.152,380.492z M528.924,385.141c0,0-0.963,1.089-3.162,1.048c0,0-2.615,0.051-3.61-1.119
	c0,0-0.237-0.836,0.571-0.549c0,0,0.63,0.955,3.018,0.851c0,0,1.467,0.188,2.681-0.816c0,0,0.399-0.209,0.567,0.105
	C528.988,384.66,529.135,384.849,528.924,385.141z M528.506,381.979c-0.821,0-1.487-0.666-1.487-1.487
	c0-0.822,0.666-1.487,1.487-1.487c0.82,0,1.486,0.665,1.486,1.487C529.992,381.313,529.326,381.979,528.506,381.979z"/>
<path fill="#00B0AB" d="M440.584,387.393c0,3.025-2.451,5.476-5.477,5.476h-15.708c-3.024,0-5.478-2.451-5.478-5.476v-15.708
	c0-3.024,2.453-5.477,5.478-5.477h15.708c3.025,0,5.477,2.453,5.477,5.477V387.393z"/>
<linearGradient id="SVGID_14_" gradientUnits="userSpaceOnUse" x1="427.2529" y1="370.4839" x2="427.2529" y2="388.5928">
	<stop  offset="0" style="stop-color:#FFFFFF"/>
	<stop  offset="0.4131" style="stop-color:#F5F5F5"/>
	<stop  offset="1" style="stop-color:#E0E0E0"/>
</linearGradient>
<path fill="url(#SVGID_14_)" d="M431.429,377.083c-1.078,0-2.056,0.419-2.781,1.103c-0.46-1.038-1.497-1.762-2.705-1.762
	c-0.897,0-1.702,0.401-2.244,1.034c-0.431-0.759-1.245-1.271-2.179-1.271c-1.382,0-2.504,1.12-2.504,2.503v4.587h3.971v1.522h4.379
	v3.793h8.125v-7.447C435.49,378.901,433.67,377.083,431.429,377.083z M431.4,376.507c1.664,0,3.014-1.348,3.014-3.012
	c0-1.663-1.35-3.012-3.014-3.012c-1.662,0-3.01,1.349-3.01,3.012C428.391,375.159,429.738,376.507,431.4,376.507z M425.924,376.005
	c1.211,0,2.192-0.981,2.192-2.192s-0.981-2.193-2.192-2.193s-2.191,0.982-2.191,2.193S424.713,376.005,425.924,376.005z
	 M421.504,375.833c1.023,0,1.856-0.832,1.856-1.856c0-1.025-0.833-1.857-1.856-1.857c-1.025,0-1.857,0.833-1.857,1.857
	C419.646,375.001,420.479,375.833,421.504,375.833z"/>
<path fill="#D78F28" d="M473.461,387.317c0,3.024-2.451,5.477-5.477,5.477h-15.709c-3.023,0-5.477-2.453-5.477-5.477v-15.709
	c0-3.024,2.453-5.476,5.477-5.476h15.709c3.025,0,5.477,2.452,5.477,5.476V387.317z"/>
<linearGradient id="SVGID_15_" gradientUnits="userSpaceOnUse" x1="460.1309" y1="370.1279" x2="460.1309" y2="389.9688">
	<stop  offset="0" style="stop-color:#FFFFFF"/>
	<stop  offset="0.4131" style="stop-color:#F5F5F5"/>
	<stop  offset="1" style="stop-color:#E0E0E0"/>
</linearGradient>
<path fill-rule="evenodd" clip-rule="evenodd" fill="url(#SVGID_15_)" d="M460.151,370.128c-2.771-0.008-5.022,2.231-5.038,5.01
	c-0.017,2.748,2.233,5.021,4.978,5.032c2.771,0.009,5.036-2.213,5.052-4.956C465.155,372.407,462.928,370.135,460.151,370.128z
	 M460.144,377.606c-1.365,0.006-2.462-1.073-2.472-2.433c-0.012-1.375,1.086-2.483,2.459-2.481c1.362,0.001,2.449,1.088,2.454,2.453
	C462.589,376.509,461.506,377.603,460.144,377.606z M465.775,382.143c-0.615,0.631-1.354,1.085-2.174,1.405
	c-0.777,0.3-1.627,0.452-2.469,0.552c0.127,0.139,0.187,0.206,0.267,0.286c1.143,1.148,2.289,2.292,3.428,3.442
	c0.388,0.393,0.47,0.879,0.256,1.335c-0.233,0.499-0.757,0.827-1.269,0.792c-0.326-0.022-0.578-0.185-0.805-0.41
	c-0.861-0.868-1.74-1.719-2.585-2.603c-0.244-0.258-0.363-0.21-0.58,0.014c-0.868,0.893-1.749,1.772-2.636,2.647
	c-0.398,0.392-0.871,0.463-1.334,0.239c-0.49-0.239-0.803-0.739-0.778-1.243c0.017-0.341,0.184-0.601,0.418-0.834
	c1.13-1.129,2.257-2.26,3.386-3.392c0.075-0.075,0.145-0.154,0.252-0.271c-1.537-0.161-2.925-0.539-4.111-1.467
	c-0.147-0.116-0.299-0.228-0.436-0.357c-0.519-0.499-0.57-1.071-0.159-1.659c0.351-0.504,0.942-0.64,1.556-0.351
	c0.119,0.057,0.232,0.127,0.342,0.202c2.211,1.521,5.252,1.563,7.473,0.068c0.221-0.167,0.456-0.306,0.729-0.375
	c0.531-0.137,1.023,0.059,1.309,0.522C466.18,381.214,466.176,381.731,465.775,382.143L465.775,382.143z"/>
<path fill="#2D98D5" d="M505.874,387.384c0,3.024-2.452,5.476-5.476,5.476h-15.711c-3.024,0-5.475-2.452-5.475-5.476v-15.709
	c0-3.024,2.45-5.478,5.475-5.478h15.711c3.023,0,5.476,2.453,5.476,5.478V387.384z"/>
<linearGradient id="SVGID_16_" gradientUnits="userSpaceOnUse" x1="492.0977" y1="372.4766" x2="492.0977" y2="388.2881">
	<stop  offset="0" style="stop-color:#FFFFFF"/>
	<stop  offset="0.4131" style="stop-color:#F5F5F5"/>
	<stop  offset="1" style="stop-color:#E0E0E0"/>
</linearGradient>
<path fill="url(#SVGID_16_)" d="M483.547,379.004l16.725-6.448c0.776-0.281,1.454,0.189,1.203,1.363l0.001-0.001l-2.848,13.417
	c-0.211,0.951-0.776,1.183-1.567,0.734l-4.336-3.196l-2.092,2.016c-0.232,0.231-0.428,0.426-0.875,0.426l0.309-4.414l8.037-7.261
	c0.35-0.308-0.078-0.481-0.539-0.175l-9.934,6.253l-4.281-1.335C482.42,380.087,482.4,379.452,483.547,379.004L483.547,379.004z
	 M483.547,379.004"/>
<radialGradient id="SVGID_17_" cx="648.1523" cy="393.7148" r="41.1817" gradientTransform="matrix(0.8329 0 0 0.8329 49.7446 70.2979)" gradientUnits="userSpaceOnUse">
	<stop  offset="0.2602" style="stop-color:#3DB54A"/>
	<stop  offset="0.7602" style="stop-color:#63BD66"/>
</radialGradient>
<path fill="url(#SVGID_17_)" d="M603.824,387.383c0,3.024-2.452,5.476-5.477,5.476h-15.709c-3.024,0-5.477-2.452-5.477-5.476
	v-15.708c0-3.025,2.452-5.477,5.477-5.477h15.709c3.024,0,5.477,2.451,5.477,5.477V387.383z"/>
<linearGradient id="SVGID_18_" gradientUnits="userSpaceOnUse" x1="590.6719" y1="369.6987" x2="590.6719" y2="389.3574">
	<stop  offset="0" style="stop-color:#FFFFFF"/>
	<stop  offset="0.4131" style="stop-color:#F5F5F5"/>
	<stop  offset="1" style="stop-color:#E0E0E0"/>
</linearGradient>
<path fill="url(#SVGID_18_)" d="M590.672,369.699c-5.377,0-9.736,4.359-9.736,9.737c0,1.817,0.498,3.516,1.365,4.971l-1.229,4.95
	l4.88-1.405c1.399,0.776,3.007,1.221,4.72,1.221c5.379,0,9.737-4.36,9.737-9.737C600.409,374.058,596.051,369.699,590.672,369.699z
	 M590.783,387.556c-1.701,0-3.279-0.527-4.58-1.424l-2.779,0.801l0.711-2.863c-0.904-1.306-1.436-2.89-1.436-4.597
	c0-4.465,3.619-8.084,8.084-8.084c4.464,0,8.083,3.619,8.083,8.084C598.866,383.937,595.247,387.556,590.783,387.556z
	 M591.885,381.897c0.225-0.234,0.453-0.468,0.676-0.704c0.17-0.183,0.352-0.413,0.604-0.483c0.344-0.094,0.687,0.123,0.984,0.27
	c0.345,0.17,0.613,0.332,0.916,0.505c0.234,0.136,0.435,0.324,0.454,0.609c0.02,0.293-0.062,0.672-0.181,0.941
	c-0.551,1.25-2.607,0.956-2.607,0.956c-5.732-1.065-6.871-6.246-6.871-6.246c-0.588-1.837,1.322-2.756,1.322-2.756
	c0.328-0.157,0.742-0.103,0.984,0.154c0.18,0.19,0.338,0.643,0.461,0.967c0.068,0.179,0.14,0.356,0.209,0.533
	c0.107,0.276,0.215,0.579,0.201,0.883c-0.015,0.316-0.299,0.529-0.488,0.749c-0.112,0.13-0.225,0.26-0.338,0.389
	C588.982,380.831,591.885,381.897,591.885,381.897z"/>
<radialGradient id="SVGID_19_" cx="765.4268" cy="389.6196" r="41.0647" gradientTransform="matrix(0.8329 0 0 0.8329 49.7446 70.2979)" gradientUnits="userSpaceOnUse">
	<stop  offset="0.0918" style="stop-color:#F4EB28"/>
	<stop  offset="0.7296" style="stop-color:#F7EC21"/>
</radialGradient>
<path fill="url(#SVGID_19_)" d="M701.463,387.375c0,3.024-2.452,5.476-5.477,5.476h-15.71c-3.024,0-5.476-2.452-5.476-5.476v-15.709
	c0-3.025,2.451-5.478,5.476-5.478h15.71c3.024,0,5.477,2.453,5.477,5.478V387.375z"/>
<g>
	<path fill="#1C1C1C" d="M683.449,373.592c0.033-0.076,0.07-0.148,0.105-0.222c0.225-0.448,0.51-0.866,0.858-1.226
		c0.298-0.307,0.635-0.57,1.006-0.782c0.317-0.183,0.66-0.328,1.013-0.434c0.287-0.088,0.585-0.149,0.885-0.187
		c0.288-0.036,0.58-0.047,0.871-0.044c0.29,0.004,0.574,0.013,0.861,0.054c0.311,0.046,0.617,0.117,0.913,0.216
		c0.358,0.119,0.704,0.278,1.024,0.477c0.371,0.23,0.707,0.514,0.997,0.84c0.343,0.388,0.618,0.833,0.831,1.304
		c0.396,0.887,0.293,2.495,0.211,3.785c-0.013,0.205-0.024,0.403-0.035,0.593l-0.003,0.08l0.052,0.062
		c0.022,0.023,0.229,0.238,0.688,0.257h0.007h0.007c0.201-0.003,0.398-0.048,0.589-0.112c0.173-0.058,0.341-0.149,0.519-0.188
		c0.189-0.042,0.527,0.047,0.659,0.197c0.125,0.146-0.013,0.334-0.129,0.427c-0.166,0.131-0.356,0.222-0.554,0.299
		c-0.068,0.026-0.156,0.054-0.259,0.087c-0.447,0.142-1.124,0.356-1.351,0.892c-0.127,0.303-0.094,0.658,0.104,1.06
		c0.081,0.188,1.359,3.067,4.232,3.54c0,0.014-0.003,0.027-0.012,0.045c-0.049,0.115-0.359,0.511-2.283,0.808
		c-0.304,0.047-0.377,0.385-0.463,0.777c-0.03,0.141-0.063,0.283-0.105,0.429c-0.014,0.044-0.016,0.047-0.063,0.047
		c-0.008,0-0.014,0-0.022,0c-0.087,0-0.215-0.018-0.366-0.047c-0.273-0.053-0.646-0.118-1.127-0.118
		c-0.266,0-0.541,0.022-0.817,0.069c-0.589,0.099-1.068,0.438-1.577,0.796c-0.311,0.22-0.625,0.439-0.965,0.613
		c-0.371,0.188-0.772,0.314-1.189,0.353c-0.094,0.008-0.187,0.01-0.278,0.015c-0.441,0.016-0.884-0.027-1.304-0.169
		c-0.371-0.127-0.711-0.322-1.035-0.538c-0.134-0.089-0.265-0.182-0.396-0.274c-0.508-0.358-0.987-0.698-1.576-0.796
		c-0.275-0.047-0.551-0.069-0.817-0.069c-0.478,0-0.853,0.072-1.126,0.125c-0.149,0.029-0.28,0.056-0.365,0.056
		c-0.07,0-0.071-0.004-0.086-0.056c-0.044-0.147-0.074-0.292-0.105-0.432c-0.086-0.395-0.16-0.733-0.461-0.779
		c-1.928-0.298-2.237-0.695-2.286-0.809c-0.007-0.018-0.01-0.034-0.013-0.047c2.876-0.473,4.152-3.35,4.233-3.54
		c0.198-0.4,0.233-0.757,0.104-1.06c-0.227-0.536-0.902-0.75-1.351-0.892c-0.103-0.033-0.191-0.061-0.259-0.087
		c-0.264-0.104-1.076-0.486-0.549-0.811c0.114-0.069,0.24-0.114,0.374-0.105c0.142,0.008,0.268,0.078,0.399,0.128
		c0.26,0.098,0.535,0.169,0.814,0.169c0.499,0,0.721-0.232,0.745-0.259l0.052-0.062l-0.002-0.08
		c-0.012-0.188-0.022-0.389-0.036-0.592C683.156,376.084,683.055,374.479,683.449,373.592z M685.673,370.717
		c-0.538,0.237-1.024,0.56-1.44,0.956c-0.499,0.472-0.903,1.055-1.204,1.73c-0.442,0.991-0.338,2.659-0.255,4l0.002,0.003
		c0.009,0.143,0.018,0.293,0.026,0.439c-0.063,0.029-0.171,0.06-0.323,0.06c-0.232,0-0.461-0.064-0.674-0.147
		c-0.186-0.072-0.371-0.15-0.574-0.155c-0.193-0.004-0.395,0.065-0.561,0.162c-0.229,0.135-0.377,0.325-0.418,0.537
		c-0.025,0.14-0.025,0.416,0.281,0.695c0.169,0.153,0.416,0.295,0.736,0.422c0.084,0.033,0.184,0.064,0.288,0.098
		c0.366,0.117,0.921,0.293,1.066,0.632c0.071,0.172,0.041,0.398-0.096,0.673c-0.003,0.007-0.006,0.014-0.009,0.022
		c-0.166,0.391-0.4,0.759-0.646,1.102c-0.387,0.535-0.852,1.031-1.396,1.407c-0.285,0.196-0.591,0.368-0.913,0.497
		c-0.287,0.113-0.594,0.162-0.891,0.245c-0.24,0.067-0.439,0.224-0.424,0.498c0.004,0.068,0.021,0.135,0.049,0.203
		c0.094,0.221,0.312,0.409,0.669,0.574c0.434,0.201,1.086,0.371,1.933,0.504c0.043,0.082,0.088,0.287,0.118,0.427
		c0.03,0.149,0.064,0.302,0.113,0.464c0.052,0.177,0.186,0.388,0.53,0.388c0.129,0,0.28-0.031,0.453-0.064
		c0.256-0.049,0.603-0.118,1.038-0.118c0.239,0,0.491,0.021,0.742,0.063c0.483,0.081,0.901,0.375,1.384,0.716
		c0.042,0.028,0.082,0.058,0.123,0.087c0.299,0.208,0.604,0.413,0.93,0.576c0.365,0.181,0.755,0.31,1.157,0.367
		c0.235,0.031,0.467,0.038,0.7,0.035c0.26-0.004,0.518-0.017,0.77-0.066c0.394-0.078,0.768-0.223,1.12-0.415
		c0.162-0.087,0.319-0.183,0.474-0.287c0.143-0.095,0.298-0.187,0.431-0.297v-0.001c0.484-0.341,0.901-0.635,1.385-0.715
		c0.251-0.042,0.501-0.063,0.741-0.063c0.416,0,0.745,0.053,1.038,0.111c0.192,0.038,0.341,0.056,0.455,0.056h0.011h0.012
		c0.251,0,0.436-0.138,0.507-0.381c0.048-0.159,0.081-0.309,0.113-0.461c0.03-0.131,0.075-0.342,0.119-0.424
		c0.847-0.132,1.497-0.303,1.931-0.503c0.355-0.166,0.575-0.353,0.67-0.573c0.027-0.066,0.045-0.135,0.049-0.204
		c0.012-0.236-0.154-0.445-0.387-0.482c-2.643-0.437-3.834-3.15-3.883-3.266c-0.004-0.009-0.008-0.016-0.01-0.022
		c-0.137-0.275-0.167-0.501-0.094-0.673c0.145-0.339,0.697-0.515,1.064-0.632c0.106-0.034,0.206-0.065,0.288-0.098
		c0.36-0.143,0.619-0.297,0.79-0.473c0.203-0.209,0.242-0.409,0.239-0.54c-0.009-0.513-0.516-0.793-0.967-0.806
		c-0.22-0.006-0.488,0.071-0.688,0.15c-0.2,0.08-0.415,0.143-0.633,0.152c-0.127-0.005-0.215-0.033-0.273-0.06
		c0.008-0.123,0.016-0.25,0.023-0.383l0.005-0.058c0.083-1.342,0.189-3.01-0.253-4.002c-0.303-0.679-0.711-1.263-1.21-1.736
		c-0.419-0.396-0.903-0.719-1.444-0.956c-0.551-0.242-1.142-0.391-1.739-0.45c-0.229-0.022-0.466-0.04-0.694-0.04
		c-0.504,0-1.023,0.057-1.516,0.174C686.304,370.473,685.982,370.58,685.673,370.717z"/>
	<linearGradient id="SVGID_20_" gradientUnits="userSpaceOnUse" x1="688.1309" y1="370.6968" x2="688.1309" y2="388.3599">
		<stop  offset="0" style="stop-color:#FFFFFF"/>
		<stop  offset="0.4131" style="stop-color:#F5F5F5"/>
		<stop  offset="1" style="stop-color:#E0E0E0"/>
	</linearGradient>
	<path fill="url(#SVGID_20_)" d="M695.256,385.422c1.924-0.297,2.234-0.693,2.283-0.808c0.009-0.018,0.012-0.032,0.012-0.045
		c-2.873-0.473-4.151-3.352-4.232-3.54c-0.197-0.402-0.23-0.757-0.104-1.06c0.227-0.536,0.903-0.75,1.351-0.892
		c0.103-0.033,0.19-0.061,0.259-0.087c0.197-0.077,0.388-0.167,0.554-0.299c0.116-0.092,0.254-0.281,0.129-0.427
		c-0.132-0.149-0.47-0.239-0.659-0.197c-0.178,0.039-0.346,0.13-0.519,0.188c-0.19,0.064-0.388,0.109-0.589,0.112h-0.007h-0.007
		c-0.459-0.019-0.665-0.233-0.688-0.257l-0.052-0.062l0.003-0.08c0.011-0.19,0.022-0.389,0.035-0.593
		c0.082-1.291,0.185-2.898-0.211-3.785c-0.213-0.472-0.488-0.917-0.831-1.304c-0.29-0.327-0.626-0.61-0.997-0.84
		c-0.32-0.199-0.666-0.358-1.024-0.477c-0.296-0.099-0.603-0.17-0.913-0.216c-0.287-0.042-0.571-0.05-0.861-0.054
		c-0.291-0.003-0.583,0.008-0.871,0.044c-0.3,0.038-0.598,0.099-0.885,0.187c-0.353,0.106-0.695,0.251-1.013,0.434
		c-0.371,0.212-0.708,0.475-1.006,0.782c-0.349,0.36-0.634,0.778-0.858,1.226c-0.035,0.074-0.072,0.146-0.105,0.222
		c-0.395,0.887-0.293,2.492-0.212,3.784c0.014,0.203,0.024,0.403,0.036,0.592l0.002,0.08l-0.052,0.062
		c-0.024,0.027-0.246,0.259-0.745,0.259c-0.279,0-0.555-0.071-0.814-0.169c-0.132-0.05-0.258-0.12-0.399-0.128
		c-0.134-0.009-0.26,0.036-0.374,0.105c-0.527,0.325,0.285,0.707,0.549,0.811c0.067,0.026,0.156,0.054,0.259,0.087
		c0.448,0.142,1.124,0.356,1.351,0.892c0.129,0.303,0.094,0.66-0.104,1.06c-0.081,0.19-1.357,3.067-4.233,3.54
		c0.003,0.014,0.006,0.029,0.013,0.047c0.049,0.114,0.358,0.511,2.286,0.809c0.301,0.046,0.375,0.384,0.461,0.779
		c0.031,0.141,0.062,0.285,0.105,0.432c0.015,0.052,0.016,0.056,0.086,0.056c0.085,0,0.216-0.027,0.365-0.056
		c0.273-0.053,0.648-0.125,1.126-0.125c0.267,0,0.542,0.022,0.817,0.069c0.589,0.099,1.068,0.438,1.576,0.796
		c0.132,0.092,0.263,0.186,0.396,0.274c0.324,0.216,0.664,0.411,1.035,0.538c0.42,0.142,0.862,0.185,1.304,0.169
		c0.092-0.004,0.185-0.006,0.278-0.015c0.417-0.039,0.818-0.165,1.189-0.353c0.34-0.174,0.654-0.394,0.965-0.613
		c0.509-0.358,0.988-0.698,1.577-0.796c0.276-0.047,0.552-0.069,0.817-0.069c0.48,0,0.854,0.065,1.127,0.118
		c0.151,0.029,0.279,0.047,0.366,0.047c0.009,0,0.015,0,0.022,0c0.047,0,0.049-0.003,0.063-0.047
		c0.043-0.146,0.075-0.289,0.105-0.429C694.879,385.807,694.952,385.469,695.256,385.422z"/>
</g>
<path fill="#DC4739" d="M669.094,387.307c0,3.024-2.453,5.477-5.477,5.477h-15.709c-3.024,0-5.477-2.453-5.477-5.477v-15.709
	c0-3.024,2.452-5.476,5.477-5.476h15.709c3.023,0,5.477,2.452,5.477,5.476V387.307z"/>
<linearGradient id="SVGID_21_" gradientUnits="userSpaceOnUse" x1="655.7178" y1="373.6299" x2="655.7178" y2="385.1479">
	<stop  offset="0" style="stop-color:#FFFFFF"/>
	<stop  offset="0.4131" style="stop-color:#F5F5F5"/>
	<stop  offset="1" style="stop-color:#E0E0E0"/>
</linearGradient>
<path fill="url(#SVGID_21_)" d="M657.932,379.342c0,0.523,0.033,1.035-0.1,1.544c-0.107,0.407-0.261,0.802-0.453,1.179
	c-0.381,0.732-0.918,1.384-1.568,1.893c-0.656,0.512-1.422,0.879-2.234,1.057c-0.399,0.091-0.81,0.134-1.22,0.134
	c-3.131,0-5.669-2.577-5.669-5.76c0-3.179,2.538-5.758,5.669-5.758c1.468,0,2.804,0.566,3.812,1.494l-1.461,1.484h-0.093
	c-0.614-0.516-1.399-0.827-2.258-0.827c-1.96,0-3.55,1.616-3.55,3.607c0,1.993,1.59,3.608,3.55,3.608
	c1.556,0,2.877-1.018,3.356-2.433h-3.314v-1.977h3.42h2.055h0.059C657.932,378.839,657.932,379.09,657.932,379.342z
	 M664.748,378.543h-1.651v-1.651h-1.661v1.651h-1.649v1.66h1.649v1.651h1.661v-1.651h1.651V378.543z"/>
<path fill="#067CB6" d="M636.216,387.383c0,3.025-2.451,5.476-5.477,5.476h-15.708c-3.024,0-5.477-2.451-5.477-5.476v-15.708
	c0-3.024,2.452-5.477,5.477-5.477h15.708c3.025,0,5.477,2.453,5.477,5.477V387.383z"/>
<linearGradient id="SVGID_22_" gradientUnits="userSpaceOnUse" x1="622.8857" y1="370.5864" x2="622.8857" y2="388.4697">
	<stop  offset="0" style="stop-color:#FFFFFF"/>
	<stop  offset="0.4131" style="stop-color:#F5F5F5"/>
	<stop  offset="1" style="stop-color:#E0E0E0"/>
</linearGradient>
<path fill="url(#SVGID_22_)" d="M614.223,376.524h3.713v11.945h-3.713V376.524z M616.08,370.586c1.186,0,2.15,0.965,2.15,2.154
	c0,1.188-0.965,2.151-2.15,2.151c-1.19,0-2.152-0.963-2.152-2.151C613.928,371.552,614.89,370.586,616.08,370.586L616.08,370.586z
	 M620.264,388.47h3.712v-5.908c0-1.558,0.295-3.069,2.227-3.069c1.906,0,1.93,1.783,1.93,3.168v5.809h3.712v-6.552
	c0-3.215-0.694-5.688-4.454-5.688c-1.806,0-3.018,0.989-3.513,1.929h-0.051v-1.634h-3.563V388.47z"/>
<path fill="#5171B7" d="M766.21,387.374c0,3.024-2.452,5.476-5.476,5.476h-15.711c-3.024,0-5.476-2.452-5.476-5.476v-15.709
	c0-3.024,2.451-5.478,5.476-5.478h15.711c3.023,0,5.476,2.453,5.476,5.478V387.374z"/>
<linearGradient id="SVGID_23_" gradientUnits="userSpaceOnUse" x1="699.5527" y1="373.9629" x2="699.5527" y2="385.0933" gradientTransform="matrix(1 0 0 1 53.9331 0)">
	<stop  offset="0" style="stop-color:#FFFFFF"/>
	<stop  offset="0.4131" style="stop-color:#F5F5F5"/>
	<stop  offset="1" style="stop-color:#E0E0E0"/>
</linearGradient>
<path fill="url(#SVGID_23_)" d="M758.756,376.737c-4.179,0-4.184,4.164-4.184,4.185c0,0-0.287,4.169,4.184,4.169
	c0,0,3.365,0.191,3.702-2.459c0.029-0.234-0.151-0.442-0.388-0.442h-1.17c-0.17,0-0.322,0.108-0.371,0.271
	c-0.102,0.346-0.461,0.901-1.709,0.901c0,0-1.621,0.107-1.88-1.448c-0.039-0.234,0.149-0.445,0.386-0.445h4.859
	c0.209,0,0.383-0.165,0.389-0.374C762.613,379.977,762.408,376.737,758.756,376.737z M757.175,380.009
	c-0.155,0-0.265-0.15-0.217-0.297c0.155-0.481,0.61-1.379,1.841-1.379c1.268,0,1.568,0.948,1.639,1.418
	c0.02,0.136-0.088,0.258-0.227,0.258H757.175z M752.155,379.039c-0.137-0.045-0.157-0.232-0.028-0.297
	c0.467-0.237,1.017-0.754,1.017-1.877c0-1.946-1.358-2.901-3.081-2.901h-5.385c-0.158,0-0.285,0.128-0.285,0.286v10.327
	c0,0.158,0.127,0.286,0.285,0.286h5.384c0,0,3.464,0.106,3.464-3.219C753.525,381.643,753.641,379.529,752.155,379.039z
	 M746.891,376.105c0-0.114,0.092-0.207,0.207-0.207h2.964c0,0,0.77,0,0.77,1.135s-0.451,1.299-0.966,1.299h-2.768
	c-0.115,0-0.207-0.093-0.207-0.207V376.105z M749.902,382.926h-2.805c-0.115,0-0.207-0.093-0.207-0.207v-2.503
	c0-0.114,0.092-0.207,0.207-0.207h2.964c0,0,1.151-0.011,1.146,1.5C751.207,382.783,750.354,382.916,749.902,382.926z
	 M756.412,374.398v0.932c0,0.113,0.092,0.205,0.205,0.205h4.088c0.113,0,0.205-0.092,0.205-0.205v-0.932
	c0-0.113-0.092-0.205-0.205-0.205h-4.088C756.504,374.193,756.412,374.285,756.412,374.398z"/>
<path fill="#59B749" d="M734.044,387.734c0,3.023-2.452,5.476-5.476,5.476h-15.71c-3.024,0-5.476-2.453-5.476-5.476v-15.708
	c0-3.025,2.451-5.478,5.476-5.478h15.71c3.023,0,5.476,2.453,5.476,5.478V387.734z"/>
<linearGradient id="SVGID_24_" gradientUnits="userSpaceOnUse" x1="773.7549" y1="371.0796" x2="773.7549" y2="389.8975" gradientTransform="matrix(1 0 0 1 -53.9331 0)">
	<stop  offset="0" style="stop-color:#FFFFFF"/>
	<stop  offset="0.4131" style="stop-color:#F5F5F5"/>
	<stop  offset="1" style="stop-color:#E0E0E0"/>
</linearGradient>
<path fill="url(#SVGID_24_)" d="M715.576,378.003c0.461,0,0.889,0.139,1.254,0.363l5.053-3.872
	c-0.139-0.308-0.229-0.648-0.229-1.007c0-1.33,1.084-2.407,2.414-2.407c1.329,0,2.406,1.078,2.406,2.407s-1.077,2.41-2.406,2.41
	c-0.527,0-1.012-0.173-1.411-0.463l-4.983,3.815c0.197,0.348,0.312,0.741,0.312,1.168c0,0.432-0.124,0.84-0.328,1.193l5.019,3.913
	c0.395-0.279,0.873-0.442,1.393-0.442c1.329,0,2.406,1.077,2.406,2.406c0,1.331-1.077,2.411-2.406,2.411
	c-1.33,0-2.414-1.08-2.414-2.411c0-0.369,0.09-0.716,0.24-1.029l-5.102-3.977c-0.353,0.214-0.771,0.344-1.217,0.344
	c-1.329,0-2.406-1.078-2.406-2.408S714.247,378.003,715.576,378.003z"/>
<path fill="#009C4D" d="M798.75,387.666c0,3.025-2.452,5.477-5.477,5.477h-15.709c-3.025,0-5.477-2.451-5.477-5.477v-15.708
	c0-3.025,2.451-5.477,5.477-5.477h15.709c3.024,0,5.477,2.452,5.477,5.477V387.666z"/>
<path fill="#FFFFFF" d="M787.18,378.422c-0.77-0.045-1.655,0.001-2.682,0.176l2.367,4.269l9.41-2.583
	c-0.102-0.242-0.25-0.477-0.446-0.704c-0.974-1.128-3.085-2.133-5.386-2.587v0c-2.256-0.529-4.699-0.507-7.202-0.129
	c-0.09,0.014-0.18,0.028-0.27,0.044l-0.832-1.542c-0.81,0.108-1.57,0.277-2.275,0.501l0.793,1.658
	c-1.294,0.501-2.356,1.216-3.123,2.075c-1.264,1.438-1.763,3.246-1.156,5.006c0.122,0.355,0.287,0.692,0.491,1.008l9.408-2.585
	l-2.611-4.838c0.09-0.017,0.181-0.034,0.273-0.051c4.226-0.754,6.537,0.41,7.803,1.65l-3.219,0.781L787.18,378.422z M779.56,382.74
	c-0.29-1.325-0.06-2.805,1.779-3.791l1.44,3.01L779.56,382.74z M779.56,382.74"/>
<path fill="#65469C" d="M831.142,387.666c0,3.025-2.452,5.478-5.476,5.478h-15.709c-3.025,0-5.477-2.453-5.477-5.478v-15.708
	c0-3.024,2.451-5.476,5.477-5.476h15.709c3.023,0,5.476,2.452,5.476,5.476V387.666z"/>
<linearGradient id="SVGID_25_" gradientUnits="userSpaceOnUse" x1="818.0332" y1="372.1929" x2="818.0332" y2="388.7842">
	<stop  offset="0" style="stop-color:#FFFFFF"/>
	<stop  offset="0.4131" style="stop-color:#F5F5F5"/>
	<stop  offset="1" style="stop-color:#E0E0E0"/>
</linearGradient>
<path fill="url(#SVGID_25_)" d="M821.64,386.616h-3.247l-2.162,2.168h-2.162v-2.168h-3.965V375.08l1.078-2.887h14.782v10.099
	L821.64,386.616z M824.526,381.572v-7.936h-11.901v10.457h3.246v2.163l2.163-2.163h3.965L824.526,381.572z M820.556,376.523v4.33
	h1.443v-4.33H820.556z M816.591,380.848h1.443v-4.324h-1.443V380.848z"/>
<linearGradient id="SVGID_26_" gradientUnits="userSpaceOnUse" x1="850.6885" y1="366.481" x2="850.6885" y2="393.1436">
	<stop  offset="0" style="stop-color:#A6BD39"/>
	<stop  offset="1" style="stop-color:#809239"/>
</linearGradient>
<path fill="url(#SVGID_26_)" d="M864.02,387.667c0,3.023-2.453,5.477-5.478,5.477h-15.707c-3.025,0-5.478-2.453-5.478-5.477v-15.708
	c0-3.025,2.452-5.478,5.478-5.478h15.707c3.024,0,5.478,2.453,5.478,5.478V387.667z"/>
<linearGradient id="SVGID_27_" gradientUnits="userSpaceOnUse" x1="850.9102" y1="374.6982" x2="850.9102" y2="386.2783">
	<stop  offset="0" style="stop-color:#FFFFFF"/>
	<stop  offset="0.4131" style="stop-color:#F5F5F5"/>
	<stop  offset="1" style="stop-color:#E0E0E0"/>
</linearGradient>
<path fill="url(#SVGID_27_)" d="M860.368,383.079c-0.14,1.057-1.894,1.535-2.825,0.874c-0.374-0.266-0.75-1.007-1.009-1.427
	c-0.332-0.537-0.614-1.095-0.894-1.535c-0.202,1.042-0.315,2.161-0.52,3.199c-1.283,0.071-2.427-0.032-2.334-1.321
	c0.042-0.619,0.923-5.974,1.183-7.721c-0.004-0.036-0.007-0.074,0.026-0.079c1.42-0.068,2.446,0.003,2.336,1.348
	c-0.098,1.171-0.49,2.729-0.576,3.782c0.247-0.194,0.473-0.442,0.691-0.688c0.416-0.468,0.801-0.953,1.298-1.4
	c0.232-0.212,0.517-0.471,0.777-0.583c0.688-0.292,1.731-0.047,2.737-0.131c-0.489,0.563-2.704,2.569-3.2,3.119
	C858.682,381.504,859.003,382.771,860.368,383.079z M851.836,374.698c-0.154,0-0.309,0-0.462,0c-0.79,0.256-1.492,0.642-1.269,1.56
	c0.177,0.729,1.084,0.91,1.76,0.634c0.545-0.221,1.104-0.772,0.834-1.531C852.587,375.041,852.311,374.818,851.836,374.698z
	 M849.962,377.606c-0.033,0.006-0.032,0.042-0.028,0.079c-0.202,1.362-0.457,3.034-0.693,4.521
	c-0.081,0.514-0.171,1.203,0.058,1.535c0.333,0.48,1.332,0.468,2.192,0.422c0.226-1.34,0.472-3.031,0.689-4.52
	c0.078-0.519,0.209-1.13,0-1.508C851.867,377.566,850.95,377.603,849.962,377.606z M848.55,380.384
	c-0.075,1.005-0.317,1.959-0.462,2.933c-0.141,0.948-0.274,1.898-0.432,2.961c-0.375,0-0.75,0-1.125,0c-0.016,0-0.03,0-0.045,0
	c-1.468-0.014-1.089-1.69-0.877-2.749c-0.275,0.182-0.518,0.472-0.865,0.633c-0.236,0.112-0.497,0.191-0.749,0.213
	c-2.228,0.199-3.521-1.196-3.43-3.015c0.056-1.136,0.499-1.998,1.153-2.696c0.86-0.92,2.168-1.593,4.093-1.456
	C847.574,377.336,848.699,378.382,848.55,380.384z M845.639,379.194c-0.217-0.155-0.681-0.215-0.952-0.187
	c-0.333,0.038-0.563,0.144-0.748,0.292c-0.672,0.532-1.233,2.415-0.316,3.013c0.516,0.337,1.317,0.187,1.671-0.079
	C846.035,381.67,846.423,379.757,845.639,379.194z"/>
<path fill="#1C1C1C" d="M896.389,387.667c0,3.025-2.453,5.476-5.477,5.476h-15.709c-3.024,0-5.477-2.451-5.477-5.476v-15.708
	c0-3.025,2.452-5.478,5.477-5.478h15.709c3.023,0,5.477,2.453,5.477,5.478V387.667z"/>
<g>
	<path fill="#E62142" d="M875.419,383.59c0,3.233,2.63,5.863,5.862,5.863c3.233,0,5.863-2.63,5.863-5.863v-6.56l0.848,0.452
		c1.073,0.573,2.242,0.863,3.473,0.863v-3.086c-2.383,0-4.32-1.938-4.32-4.32h-3.086v12.651c0,1.531-1.245,2.777-2.777,2.777
		c-1.531,0-2.776-1.246-2.776-2.777s1.245-2.777,2.776-2.777v-3.086C878.049,377.728,875.419,380.357,875.419,383.59z"/>
	<path fill="#5BCBF0" d="M874.65,382.822c0,3.232,2.63,5.863,5.863,5.863c3.232,0,5.862-2.63,5.862-5.863v-6.561l0.848,0.452
		c1.073,0.572,2.242,0.863,3.473,0.863v-3.086c-2.382,0-4.32-1.938-4.32-4.32h-3.085v12.651c0,1.531-1.246,2.777-2.777,2.777
		s-2.777-1.246-2.777-2.777s1.246-2.777,2.777-2.777v-3.085C877.28,376.959,874.65,379.589,874.65,382.822z"/>
	<linearGradient id="SVGID_28_" gradientUnits="userSpaceOnUse" x1="883.0576" y1="370.939" x2="883.0576" y2="388.6851">
		<stop  offset="0" style="stop-color:#FFFFFF"/>
		<stop  offset="0.4131" style="stop-color:#F5F5F5"/>
		<stop  offset="1" style="stop-color:#E0E0E0"/>
	</linearGradient>
	<path fill="url(#SVGID_28_)" d="M890.696,377.577v-2.386c-1.069-0.192-2.004-0.78-2.645-1.606
		c-0.826-0.642-1.414-1.575-1.607-2.645h-2.386v12.651c0,1.531-1.245,2.777-2.777,2.777c-0.961,0-1.811-0.491-2.309-1.236
		c-0.745-0.499-1.236-1.348-1.236-2.309c0-1.531,1.246-2.777,2.777-2.777v-2.267c-2.871,0.377-5.095,2.84-5.095,5.813
		c0,1.421,0.509,2.726,1.353,3.742c1.016,0.845,2.32,1.353,3.742,1.353c3.232,0,5.862-2.63,5.862-5.863v-6.561l0.848,0.452
		C888.297,377.286,889.466,377.577,890.696,377.577z"/>
</g>
<g>
	
		<radialGradient id="SVGID_29_" cx="-249.5913" cy="371.4341" r="16.0054" gradientTransform="matrix(0.8329 0 0 0.8329 49.7446 70.2979)" gradientUnits="userSpaceOnUse">
		<stop  offset="0.1684" style="stop-color:#C22126"/>
		<stop  offset="0.7653" style="stop-color:#DE2C27"/>
	</radialGradient>
	<path fill="url(#SVGID_29_)" d="M-144.809,387.52c0,3.025-2.453,5.477-5.476,5.477h-15.708c-3.025,0-5.477-2.452-5.477-5.477
		v-15.708c0-3.025,2.452-5.476,5.477-5.476h15.708c3.023,0,5.476,2.451,5.476,5.476V387.52z"/>
</g>
<linearGradient id="SVGID_30_" gradientUnits="userSpaceOnUse" x1="-158.1401" y1="371.8994" x2="-158.1401" y2="387.2061">
	<stop  offset="0" style="stop-color:#FFFFFF"/>
	<stop  offset="0.4131" style="stop-color:#F5F5F5"/>
	<stop  offset="1" style="stop-color:#E0E0E0"/>
</linearGradient>
<path fill="url(#SVGID_30_)" d="M-151.182,372.314c-3.945-0.554-10.076-0.554-13.639,0c-2.577,0.4-3.667,2.114-3.667,4.722v4.994
	c0,2.608,1.195,4.361,3.778,4.723c3.554,0.497,10.259,0.701,13.418,0c2.545-0.565,3.499-2.114,3.499-4.723v-4.994
	C-147.792,374.428-148.598,372.677-151.182,372.314z M-160.214,382.596v-5.884l5.637,2.942L-160.214,382.596z"/>
<path fill="#EE2753" d="M994.24,387.732c0,3.024-2.453,5.478-5.477,5.478h-15.708c-3.025,0-5.478-2.453-5.478-5.478v-15.708
	c0-3.025,2.452-5.476,5.478-5.476h15.708c3.023,0,5.477,2.451,5.477,5.476V387.732z"/>
<path fill="#BC2026" d="M83.165,387.521c0,3.025-2.452,5.476-5.476,5.476H61.979c-3.024,0-5.476-2.451-5.476-5.476v-15.708
	c0-3.025,2.452-5.478,5.476-5.478h15.709c3.024,0,5.476,2.453,5.476,5.478V387.521z"/>
<g>
	<g id="UG8QpP_19_">
		<g>
			<g>
				<linearGradient id="SVGID_31_" gradientUnits="userSpaceOnUse" x1="70.2759" y1="371.6699" x2="70.2759" y2="389.6558">
					<stop  offset="0" style="stop-color:#FFFFFF"/>
					<stop  offset="0.4131" style="stop-color:#F5F5F5"/>
					<stop  offset="1" style="stop-color:#E0E0E0"/>
				</linearGradient>
				<path fill-rule="evenodd" clip-rule="evenodd" fill="url(#SVGID_31_)" d="M69.037,383.948c0.924,1.06,2.46,1.458,3.806,1.046
					c0.279-0.084,0.555-0.184,0.822-0.299c0.521-0.225,1.01-0.52,1.43-0.904c1.2-1.094,1.853-2.473,2.156-4.039
					c0.394-2.036,0.037-3.935-1.25-5.568c-0.782-0.992-1.885-1.643-3.064-2.054c-1.598-0.559-3.394-0.625-5.01-0.104
					c-0.464,0.15-0.929,0.354-1.353,0.593c-1.513,0.86-2.678,2.246-3.153,3.929c-0.126,0.449-0.203,0.917-0.247,1.381
					c-0.108,1.123,0.14,2.234,0.65,3.234c0.081,0.158,0.182,0.303,0.258,0.463c0.18,0.38,0.454,0.757,0.788,1.014
					c0.155,0.12,0.346,0.224,0.549,0.21c0.282-0.02,0.353-0.29,0.43-0.523c0.085-0.258,0.114-0.529,0.171-0.793
					c0.05-0.241,0.057-0.385-0.093-0.599c-1.186-1.685-0.779-4.412,0.683-5.778c1.325-1.236,2.829-1.598,4.512-1.359
					c1.5,0.213,2.838,1.197,3.425,2.61c0.24,0.58,0.317,1.365,0.325,1.981c0.013,0.887-0.127,1.682-0.472,2.511
					c-0.293,0.709-0.735,1.395-1.354,1.863c-0.911,0.687-2.823,0.985-3.208-0.445c-0.095-0.352-0.106-0.81-0.036-1.166
					c0.18-0.898,0.524-1.751,0.731-2.641c0.109-0.475,0.183-0.952,0.053-1.436c-0.152-0.571-0.507-0.94-1.1-1.02
					c-0.63-0.087-1.222,0.109-1.589,0.6c-0.764,1.024-0.861,2.194-0.486,3.399c0.08,0.26,0.109,0.482,0.042,0.751
					c-0.361,1.463-0.675,2.938-1.051,4.395c-0.256,0.991-0.342,2.009-0.293,3.029c0.013,0.284,0.02,0.569,0.084,0.846
					c0.043,0.186,0.111,0.452,0.293,0.549c0.252,0.134,0.466-0.188,0.585-0.363c0.467-0.69,0.833-1.46,1.109-2.246
					c0.18-0.51,0.319-1.033,0.456-1.557C68.684,385.274,68.95,384.324,69.037,383.948z"/>
			</g>
		</g>
	</g>
</g>
<path fill="#439CD6" d="M343.304,387.383c0,3.023-2.452,5.476-5.478,5.476h-15.707c-3.025,0-5.478-2.453-5.478-5.476v-15.708
	c0-3.025,2.452-5.478,5.478-5.478h15.707c3.025,0,5.478,2.453,5.478,5.478V387.383z"/>
<linearGradient id="SVGID_32_" gradientUnits="userSpaceOnUse" x1="330.2422" y1="372.1631" x2="330.2422" y2="387.2539">
	<stop  offset="0" style="stop-color:#FFFFFF"/>
	<stop  offset="0.4131" style="stop-color:#F5F5F5"/>
	<stop  offset="1" style="stop-color:#E0E0E0"/>
</linearGradient>
<path fill="url(#SVGID_32_)" d="M326.797,387.254c7.008,0,10.84-5.806,10.84-10.84c0-0.165-0.002-0.329-0.012-0.492
	c0.746-0.537,1.391-1.21,1.9-1.973c-0.682,0.303-1.418,0.507-2.188,0.6c0.787-0.472,1.39-1.218,1.676-2.107
	c-0.734,0.436-1.552,0.754-2.419,0.926c-0.696-0.741-1.685-1.204-2.781-1.204c-2.104,0-3.808,1.707-3.808,3.809
	c0,0.299,0.033,0.588,0.098,0.87c-3.166-0.162-5.976-1.677-7.854-3.981c-0.326,0.562-0.516,1.216-0.516,1.914
	c0,1.321,0.672,2.488,1.696,3.172c-0.625-0.02-1.214-0.191-1.726-0.478c-0.002,0.017-0.002,0.032-0.002,0.049
	c0,1.846,1.314,3.386,3.056,3.734c-0.317,0.087-0.655,0.135-1.003,0.135c-0.246,0-0.484-0.025-0.716-0.07
	c0.485,1.516,1.892,2.616,3.558,2.647c-1.303,1.022-2.945,1.631-4.73,1.631c-0.308,0-0.609-0.018-0.909-0.054
	C322.644,386.623,324.646,387.254,326.797,387.254L326.797,387.254z"/>
<linearGradient id="SVGID_33_" gradientUnits="userSpaceOnUse" x1="947.6914" y1="366.5479" x2="947.6914" y2="393.21">
	<stop  offset="0" style="stop-color:#966CAF"/>
	<stop  offset="1" style="stop-color:#7F3795"/>
</linearGradient>
<path fill="url(#SVGID_33_)" d="M961.021,387.732c0,3.024-2.452,5.478-5.476,5.478h-15.709c-3.025,0-5.477-2.453-5.477-5.478
	v-15.708c0-3.025,2.451-5.476,5.477-5.476h15.709c3.023,0,5.476,2.451,5.476,5.476V387.732z"/>
<linearGradient id="SVGID_34_" gradientUnits="userSpaceOnUse" x1="948.7578" y1="369.6235" x2="948.7578" y2="390.0005">
	<stop  offset="0" style="stop-color:#FFFFFF"/>
	<stop  offset="0.4131" style="stop-color:#F5F5F5"/>
	<stop  offset="1" style="stop-color:#E0E0E0"/>
</linearGradient>
<path fill="url(#SVGID_34_)" d="M948.758,390c-3.744,0-6.792-3.046-6.792-6.792v-13.585h3.882v13.585
	c0,1.604,1.305,2.911,2.91,2.911s2.911-1.307,2.911-2.911c0-1.605-1.306-2.911-2.911-2.911h-1.939v-3.882h1.939
	c3.745,0,6.792,3.048,6.792,6.793S952.503,390,948.758,390L948.758,390z"/>
<radialGradient id="SVGID_35_" cx="-178.6147" cy="382.125" r="31.9828" gradientTransform="matrix(0.8333 0 0 0.8333 49.4033 69.9072)" gradientUnits="userSpaceOnUse">
	<stop  offset="0" style="stop-color:#498DCB"/>
	<stop  offset="0.3702" style="stop-color:#7369AF"/>
	<stop  offset="0.5624" style="stop-color:#8055A3"/>
	<stop  offset="0.736" style="stop-color:#B25391"/>
	<stop  offset="0.9348" style="stop-color:#EF4E7E"/>
	<stop  offset="1" style="stop-color:#F37361"/>
</radialGradient>
<path fill="url(#SVGID_35_)" d="M-79.7,387.52c0,3.024-2.452,5.477-5.476,5.477h-15.708c-3.025,0-5.477-2.453-5.477-5.477v-15.709
	c0-3.024,2.452-5.476,5.477-5.476h15.708c3.024,0,5.476,2.452,5.476,5.476V387.52z"/>
<linearGradient id="SVGID_36_" gradientUnits="userSpaceOnUse" x1="-92.8081" y1="370.145" x2="-92.8081" y2="389.5425">
	<stop  offset="0" style="stop-color:#FFFFFF"/>
	<stop  offset="0.4131" style="stop-color:#F5F5F5"/>
	<stop  offset="1" style="stop-color:#E0E0E0"/>
</linearGradient>
<path fill="url(#SVGID_36_)" d="M-92.808,370.145c-5.38,0-9.552,3.942-9.552,9.265c0,2.784,1.141,5.191,2.999,6.854
	c0.155,0.139,0.251,0.334,0.255,0.544l-0.12,1.959c0.015,0.6,0.442,0.961,1.072,0.676l2.069-1.095
	c0.16-0.072,0.341-0.084,0.511-0.039c0.871,0.239,1.798,0.368,2.765,0.368c5.38,0,9.552-3.942,9.552-9.265
	S-87.428,370.145-92.808,370.145z M-87.07,376.843l-2.809,4.881c-0.446,0.709-1.401,0.884-2.072,0.382l-2.233-1.674
	c-0.206-0.153-0.487-0.153-0.69,0.002l-3.013,2.72c-0.401,0.306-0.927-0.174-0.657-0.602l2.806-4.883
	c0.447-0.709,1.402-0.883,2.073-0.382l2.233,1.674c0.205,0.153,0.487,0.153,0.69-0.002l3.014-2.72
	C-87.328,375.934-86.803,376.416-87.07,376.843z"/>
<path fill="#844A96" d="M571.14,387.722c0,3.025-2.453,5.477-5.477,5.477h-15.708c-3.025,0-5.478-2.452-5.478-5.477v-15.708
	c0-3.024,2.452-5.476,5.478-5.476h15.708c3.023,0,5.477,2.452,5.477,5.476V387.722z"/>
<path fill="#FFFFFF" d="M557.294,374.861c0.024-0.406,0.407-0.255,0.592-0.281c2.452,0.081,4.565,2.283,4.535,4.657
	c-0.001,0.055,0.003,0.116,0.006,0.178c0.007,0.199-0.008,0.398-0.278,0.393c-0.312-0.006-0.262-0.303-0.275-0.532
	c-0.001-0.02-0.002-0.039-0.004-0.057c-0.326-2.521-1.504-3.711-4.057-4.097C557.601,375.09,557.279,375.135,557.294,374.861z
	 M558.313,375.813c-0.246-0.028-0.57-0.143-0.627,0.191c-0.061,0.351,0.3,0.315,0.532,0.367c1.577,0.345,2.126,0.908,2.386,2.441
	c0.011,0.065,0.013,0.141,0.02,0.214c0.014,0.178,0.056,0.341,0.331,0.3c0.142-0.021,0.188-0.104,0.202-0.205
	c0.014-0.103-0.007-0.223,0.005-0.311C561.174,377.338,559.888,375.998,558.313,375.813z M558.457,377.017
	c-0.164,0.004-0.325,0.021-0.385,0.193c-0.091,0.256,0.099,0.318,0.293,0.348c0.646,0.102,0.987,0.476,1.052,1.108
	c0.009,0.081,0.038,0.154,0.085,0.208c0.051,0.06,0.123,0.094,0.213,0.084c0.054-0.006,0.096-0.023,0.129-0.045
	c0.112-0.076,0.125-0.231,0.119-0.381C559.975,377.82,559.156,377,558.457,377.017z M561.729,381.988
	c-0.318-0.252-0.659-0.478-0.995-0.708c-0.669-0.46-1.28-0.497-1.779,0.245c-0.28,0.416-0.673,0.434-1.083,0.251
	c-1.131-0.502-2.004-1.277-2.515-2.404c-0.08-0.177-0.131-0.348-0.14-0.509c-0.018-0.295,0.104-0.562,0.445-0.79
	c0.281-0.187,0.563-0.407,0.541-0.814c-0.029-0.532-1.346-2.307-1.865-2.494c-0.215-0.078-0.43-0.073-0.648-0.001
	c-1.218,0.401-1.723,1.384-1.239,2.547c0.269,0.646,0.575,1.254,0.917,1.828c1.502,2.508,3.712,4.332,6.554,5.532
	c0.199,0.084,0.421,0.118,0.532,0.147c0.795,0.008,1.728-0.743,1.996-1.488C562.709,382.615,562.161,382.33,561.729,381.988z"/>
<path fill="#FFFFFF" d="M565.57,381.835c-0.497,4.104-3.43,4.363-3.969,4.541c-0.23,0.076-2.369,0.62-5.058,0.44l-2.913,3.229
	l-0.004-3.722l-0.023-0.006c-3.914-1.113-3.782-5.286-3.738-7.477c0.045-2.19,0.446-3.985,1.641-5.192
	c2.145-1.989,6.564-1.692,6.564-1.692c3.732,0.017,5.521,1.167,5.936,1.552C565.382,374.716,566.084,377.604,565.57,381.835
	L565.57,381.835z M565.023,372.484c-0.49-0.461-2.471-1.934-6.883-1.954c0,0-5.202-0.321-7.738,2.061
	c-1.412,1.446-1.908,3.56-1.961,6.183c-0.053,2.624-0.121,7.538,4.507,8.871l0.005,0.001l-0.003,2.033c0,0-0.028,0.824,0.5,0.991
	c0.641,0.204,1.017-0.422,1.628-1.097c0.336-0.37,0.799-0.914,1.148-1.33c3.165,0.271,5.6-0.351,5.875-0.443
	c0.64-0.213,4.256-0.687,4.844-5.601C567.552,377.134,566.65,373.93,565.023,372.484L565.023,372.484z"/>
<path fill="#5797D1" d="M928.73,387.732c0,3.024-2.452,5.478-5.476,5.478h-15.709c-3.025,0-5.477-2.453-5.477-5.478v-15.708
	c0-3.025,2.451-5.476,5.477-5.476h15.709c3.023,0,5.476,2.451,5.476,5.476V387.732z"/>
<path fill="#FFFFFF" d="M918.661,372.537c0,1.73-1.402,3.133-3.133,3.133c-1.729,0-3.133-1.403-3.133-3.133
	c0-1.73,1.403-3.133,3.133-3.133C917.259,369.404,918.661,370.807,918.661,372.537z M922.395,381.299
	c-1.73,0-3.133,1.402-3.133,3.133c0,1.73,1.402,3.133,3.133,3.133s3.133-1.403,3.133-3.133
	C925.527,382.702,924.125,381.299,922.395,381.299z M908.761,381.299c-1.73,0-3.133,1.402-3.133,3.133
	c0,1.73,1.402,3.133,3.133,3.133c1.729,0,3.133-1.403,3.133-3.133C911.894,382.702,910.49,381.299,908.761,381.299z
	 M919.257,372.033c0.022,0.165,0.034,0.333,0.034,0.504c0,0.567-0.126,1.105-0.351,1.587c-0.045,0.106-0.097,0.207-0.156,0.299
	c-0.016,0.026-0.03,0.052-0.046,0.077c0.127,0.061,4.632,2.236,5.694,6.799C924.433,381.299,925.551,375.023,919.257,372.033z
	 M908.757,380.653c0.039,0,0.077,0.001,0.116,0.003c-0.083-0.859-0.308-5.109,2.881-8.543c0,0-5.575,1.697-5.263,9.268
	C907.13,380.923,907.912,380.653,908.757,380.653z M919.524,386.937c-0.231-0.247-0.443-0.535-0.559-0.842
	c-0.017-0.033-0.031-0.068-0.047-0.102c-0.165,0.123-4.021,2.946-8.341,1.717c0,0,4.592,3.518,9.9,0.018c0,0-0.015-0.01-0.037-0.024
	C920.097,387.497,919.787,387.237,919.524,386.937z"/>
<g>
	<g>
		<g>
			<g>
				<path d="M982.152,388.685c-2.002,0.021-3.521-0.76-4.89-1.915c-1.456-1.228-2.474-2.798-3.437-4.409
					c-0.503-0.842-1.001-1.689-1.219-2.666c-0.208-0.93-0.088-1.771,0.604-2.475c0.195-0.152,0.127-0.134,0.109-0.359
					c-0.119-1.113,0.291-1.981,1.245-2.571c0.084-0.053,0.179-0.101,0.223-0.166c0.041-0.063,0.042-0.212,0.063-0.332
					c0.214-1.209,1.027-2.01,2.236-2.197c0.56-0.087,1.091,0.03,1.581,0.301c0.106,0.059,0.261,0.134,0.309,0.131
					c0.058-0.003,0.16-0.057,0.256-0.104c0.671-0.334,1.351-0.293,2.023,0.003c0.869,0.382,1.517,1.029,2.092,1.761
					c0.395,0.501,0.745,1.035,1.097,1.566c0.104,0.159,0.184,0.251,0.213,0.257s0.126-0.072,0.252-0.207
					c0.523-0.558,1.18-0.815,1.931-0.807c0.966,0.011,1.68,0.458,2.121,1.324c0.428,0.839,0.541,1.755,0.632,2.672
					c0.2,2.021-0.018,3.995-0.866,5.849c-1.124,2.453-3.099,3.823-5.734,4.277C982.662,388.675,982.329,388.69,982.152,388.685z"/>
				<path fill="#FFD955" d="M987.968,379.443c-0.018-0.676-0.063-1.667-0.391-2.619c-0.111-0.324-0.289-0.62-0.677-0.663
					c-0.4-0.044-0.702,0.146-0.932,0.461c-0.225,0.308-0.351,0.66-0.449,1.023c-0.075,0.273-0.128,0.553-0.222,0.82
					c-0.114,0.328-0.341,0.379-0.612,0.162c-0.186-0.148-0.307-0.348-0.429-0.547c-0.655-1.071-1.32-2.135-2.069-3.144
					c-0.327-0.44-0.684-0.854-1.115-1.196c-0.225-0.178-0.463-0.332-0.751-0.379c-0.443-0.074-0.756,0.224-0.706,0.668
					c0.03,0.269,0.16,0.5,0.294,0.727c0.646,1.1,1.297,2.197,1.941,3.297c0.098,0.167,0.289,0.381,0.07,0.532
					c-0.229,0.158-0.348-0.106-0.461-0.263c-0.207-0.287-0.404-0.582-0.605-0.874c-0.857-1.241-1.717-2.48-2.57-3.724
					c-0.23-0.336-0.53-0.53-0.943-0.494c-0.736,0.063-1.086,0.83-0.664,1.47c0.99,1.505,1.99,3.004,2.985,4.506
					c0.062,0.093,0.126,0.185,0.174,0.284c0.052,0.107,0.058,0.219-0.058,0.296c-0.116,0.078-0.216,0.026-0.299-0.057
					c-0.063-0.064-0.116-0.141-0.17-0.214c-0.776-1.05-1.553-2.1-2.329-3.149c-0.12-0.163-0.234-0.332-0.369-0.482
					c-0.262-0.291-0.601-0.374-0.97-0.276c-0.362,0.096-0.59,0.344-0.669,0.714c-0.065,0.301,0.053,0.552,0.225,0.792
					c1.04,1.446,2.078,2.895,3.116,4.343c0.108,0.152,0.228,0.334,0.033,0.48c-0.195,0.146-0.333-0.018-0.447-0.169
					c-0.049-0.065-0.097-0.13-0.146-0.195c-0.678-0.896-1.355-1.792-2.034-2.688c-0.153-0.203-0.32-0.393-0.546-0.52
					c-0.504-0.285-0.982-0.017-0.992,0.562c-0.005,0.255,0.059,0.501,0.141,0.743c0.226,0.667,0.589,1.265,0.946,1.864
					c0.748,1.252,1.516,2.493,2.577,3.517c0.824,0.796,1.734,1.462,2.851,1.793c2.523,0.75,5.564-0.796,6.582-3.344
					C987.757,382.299,987.979,381.051,987.968,379.443z"/>
				<path opacity="0.5" d="M972.588,384.588c0.231,0.008,0.343,0.183,0.432,0.386c0.656,1.496,1.715,2.659,3.01,3.624
					c0.209,0.156,0.442,0.283,0.67,0.415c0.308,0.179,0.416,0.401,0.298,0.636c-0.122,0.245-0.387,0.299-0.712,0.129
					c-0.78-0.407-1.45-0.964-2.06-1.588c-0.752-0.771-1.416-1.612-1.877-2.596c-0.077-0.164-0.15-0.335-0.185-0.511
					C972.111,384.813,972.309,384.589,972.588,384.588z"/>
				<path opacity="0.5" d="M985.971,373.234c-0.191,0.002-0.318-0.098-0.418-0.253c-0.619-0.959-1.457-1.665-2.488-2.146
					c-0.312-0.145-0.428-0.351-0.333-0.587c0.101-0.251,0.355-0.346,0.665-0.207c1.158,0.523,2.102,1.31,2.815,2.365
					c0.066,0.099,0.12,0.214,0.147,0.33C986.422,372.998,986.234,373.228,985.971,373.234z"/>
			</g>
		</g>
	</g>
	<g opacity="0.5">
		<path fill="#F99B20" d="M980.289,383.375c-0.063,0-0.126-0.015-0.185-0.046c-0.192-0.102-0.267-0.341-0.164-0.534
			c0.394-0.741,1.603-2.241,2.604-2.904c0.182-0.12,0.427-0.07,0.548,0.111c0.12,0.182,0.07,0.427-0.111,0.547
			c-0.854,0.565-1.992,1.955-2.342,2.615C980.567,383.299,980.431,383.375,980.289,383.375z"/>
	</g>
	<g opacity="0.5">
		<path fill="#F99B20" d="M985.139,383.862c-0.143,0-0.279-0.076-0.35-0.21c-0.418-0.792-0.85-2.356-0.816-3.503
			c0.007-0.218,0.188-0.391,0.406-0.383c0.219,0.006,0.39,0.188,0.384,0.406c-0.031,1.076,0.4,2.498,0.725,3.111
			c0.102,0.193,0.028,0.432-0.165,0.534C985.264,383.847,985.2,383.862,985.139,383.862z"/>
	</g>
</g>
</svg>
