<svg id="Capa_1" enable-background="new 0 0 512 512" height="512" viewBox="0 0 512 512" width="512" xmlns="http://www.w3.org/2000/svg" xmlns:xlink="http://www.w3.org/1999/xlink"><linearGradient id="SVGID_1_" gradientUnits="userSpaceOnUse" x1="74.98" x2="437.018" y1="437.019" y2="74.98"><stop offset="0" stop-color="#ff2f2b"/><stop offset="1" stop-color="#ff9ceb"/></linearGradient><radialGradient id="SVGID_2_" cx="256" cy="255.999" gradientUnits="userSpaceOnUse" r="256"><stop offset="0" stop-color="#ff2f2b"/><stop offset="1" stop-color="#ff9ceb" stop-opacity="0"/></radialGradient><linearGradient id="SVGID_3_" gradientUnits="userSpaceOnUse" x1="27.092" x2="559.527" y1="607.982" y2="75.548"><stop offset="0" stop-color="#ffb5d3"/><stop offset=".4177" stop-color="#ffdbea"/><stop offset=".7824" stop-color="#fff5f9"/><stop offset=".9985" stop-color="#fff"/></linearGradient><linearGradient id="SVGID_4_" gradientUnits="userSpaceOnUse" x1="72.615" x2="561.418" y1="410.329" y2="-78.474"><stop offset="0" stop-color="#ffb5d3"/><stop offset=".4065" stop-color="#ffdbea"/><stop offset=".7615" stop-color="#fff5f9"/><stop offset=".9719" stop-color="#fff"/></linearGradient><linearGradient id="lg1"><stop offset="0" stop-color="#ff4747"/><stop offset="1" stop-color="#ff9ceb"/></linearGradient><linearGradient id="SVGID_5_" gradientUnits="userSpaceOnUse" x1="-14.774" x2="544.903" xlink:href="#lg1" y1="558.413" y2="-1.264"/><linearGradient id="SVGID_6_" gradientUnits="userSpaceOnUse" x1="145.23" x2="536.065" xlink:href="#lg1" y1="277.384" y2="-113.451"/><linearGradient id="SVGID_7_" gradientUnits="userSpaceOnUse" x1="34.459" x2="189.988" xlink:href="#lg1" y1="256.368" y2="100.839"/><linearGradient id="SVGID_8_" gradientUnits="userSpaceOnUse" x1="44.009" x2="222.039" xlink:href="#lg1" y1="246.83" y2="68.8"/><linearGradient id="lg2"><stop offset="0" stop-color="#ffb5d3"/><stop offset=".4183" stop-color="#ffdbea"/><stop offset=".7836" stop-color="#fff5f9"/><stop offset="1" stop-color="#fff"/></linearGradient><linearGradient id="SVGID_9_" gradientUnits="userSpaceOnUse" x1="67.727" x2="222.457" xlink:href="#lg2" y1="267.899" y2="113.168"/><linearGradient id="SVGID_10_" gradientUnits="userSpaceOnUse" x1="89.335" x2="266.304" xlink:href="#lg2" y1="246.306" y2="69.337"/><linearGradient id="lg3"><stop offset="0" stop-color="#ff79a2"/><stop offset=".6553" stop-color="#ffb0cf"/><stop offset="1" stop-color="#ffc8e3"/></linearGradient><linearGradient id="SVGID_11_" gradientUnits="userSpaceOnUse" x1="103.863" x2="257.515" xlink:href="#lg3" y1="276.92" y2="123.267"/><linearGradient id="SVGID_12_" gradientUnits="userSpaceOnUse" x1="126.033" x2="301.789" xlink:href="#lg3" y1="254.767" y2="79.011"/><linearGradient id="SVGID_13_" gradientUnits="userSpaceOnUse" x1="-104.234" x2="418.04" xlink:href="#lg3" y1="709.628" y2="187.355"/><linearGradient id="SVGID_14_" gradientUnits="userSpaceOnUse" x1="46.739" x2="439.678" xlink:href="#lg3" y1="442.679" y2="49.74"/><linearGradient id="SVGID_15_" gradientUnits="userSpaceOnUse" x1="97.028" x2="469.973" xlink:href="#lg1" y1="605.389" y2="232.444"/><linearGradient id="lg4"><stop offset="0" stop-color="#ffb5d3"/><stop offset=".2872" stop-color="#ffcee2"/><stop offset=".7511" stop-color="#fff2f7"/><stop offset="1" stop-color="#fff"/></linearGradient><linearGradient id="SVGID_16_" gradientUnits="userSpaceOnUse" x1="-112.414" x2="407.419" xlink:href="#lg4" y1="702.492" y2="182.66"/><linearGradient id="SVGID_17_" gradientUnits="userSpaceOnUse" x1="18.16" x2="438.676" xlink:href="#lg4" y1="440.78" y2="20.264"/><linearGradient id="SVGID_18_" gradientUnits="userSpaceOnUse" x1="128.573" x2="496.676" xlink:href="#lg1" y1="401.277" y2="33.174"/><linearGradient id="SVGID_19_" gradientUnits="userSpaceOnUse" x1="62.485" x2="487.729" xlink:href="#lg1" y1="529.054" y2="103.81"/><linearGradient id="SVGID_20_" gradientUnits="userSpaceOnUse" x1="-121.472" x2="407.892" xlink:href="#lg4" y1="802.407" y2="273.044"/><linearGradient id="SVGID_21_" gradientUnits="userSpaceOnUse" x1="38.474" x2="458.425" xlink:href="#lg4" y1="434.55" y2="14.598"/><linearGradient id="SVGID_22_" gradientUnits="userSpaceOnUse" x1="37.171" x2="458.198" xlink:href="#lg4" y1="551.657" y2="130.63"/><linearGradient id="SVGID_23_" gradientUnits="userSpaceOnUse" x1="68.618" x2="360.844" xlink:href="#lg3" y1="358.336" y2="66.109"/><linearGradient id="SVGID_24_" gradientUnits="userSpaceOnUse" x1="58.858" x2="348.651" xlink:href="#lg3" y1="455.12" y2="165.327"/><linearGradient id="SVGID_25_" gradientUnits="userSpaceOnUse" x1="-123.929" x2="407.126" xlink:href="#lg3" y1="849.5" y2="318.445"/><linearGradient id="SVGID_26_" gradientUnits="userSpaceOnUse" x1="257.447" x2="399.115" xlink:href="#lg3" y1="430.214" y2="288.547"/><g><circle cx="256" cy="256" fill="url(#SVGID_1_)" r="256"/><circle cx="256" cy="256" fill="url(#SVGID_2_)" r="256"/><path d="m407 112.885c-20-.781-40-1.407-60-1.877 3.033 96.661 3.033 193.323 0 289.984 20-.471 40-1.096 60-1.877 8.276-.33 15.39-7.338 15.828-15.615 4.43-85 4.43-170 0-255-.439-8.277-7.552-15.285-15.828-15.615z" fill="url(#SVGID_3_)"/><path d="m362.528 385.388c2.829-86.259 2.829-172.517 0-258.776-.283-8.402-7.252-15.405-15.529-15.604-80.667-1.898-161.333-1.272-242 1.877-8.275.33-15.389 7.338-15.828 15.615-4.43 85-4.43 170 0 255 .44 8.277 7.553 15.285 15.828 15.615 80.667 3.149 161.333 3.775 242 1.877 8.276-.199 15.248-7.202 15.529-15.604z" fill="url(#SVGID_4_)"/><path d="m407.753 127.95c-15.075-.524-30.15-.97-45.224-1.338-18.768 40.102-38.917 80.804-59.382 121.715 35.856-20.44 71.604-40.679 106.781-60.118-.502-20.086-1.227-40.173-2.175-60.259z" fill="url(#SVGID_5_)"/><path d="m104.247 127.95c-.948 20.086-1.673 40.173-2.175 60.259 86.826 18.502 174.729 39.76 262.571 60.18-.078-40.592-.783-81.185-2.114-121.777-86.095-2.1-172.188-1.654-258.282 1.338z" fill="url(#SVGID_6_)"/><path d="m148.59 157.057c-.205 8.412-7.174 15.331-15.602 15.477-8.425.144-15.073-6.488-14.797-14.835.275-8.346 7.314-15.307 15.669-15.517 8.356-.21 14.933 6.464 14.73 14.875z" fill="url(#SVGID_7_)"/><path d="m136.988 164.873c-8.412.153-15.038-6.477-14.749-14.831.03-.923.159-1.825.347-2.707-2.596 2.764-4.266 6.399-4.394 10.364-.276 8.347 6.372 14.979 14.797 14.835 7.495-.131 13.826-5.622 15.279-12.757-2.85 3.054-6.863 5.013-11.28 5.096z" fill="url(#SVGID_8_)"/><path d="m194.189 156.392c-.115 8.466-7.028 15.386-15.452 15.478-8.425.09-15.135-6.649-14.947-15.075.187-8.425 7.14-15.386 15.494-15.518 8.355-.131 15.02 6.649 14.905 15.115z" fill="url(#SVGID_9_)"/><path d="m182.664 164.176c-8.414.094-15.104-6.645-14.911-15.076.021-.931.138-1.84.316-2.728-2.565 2.766-4.193 6.422-4.279 10.423-.188 8.425 6.522 15.165 14.947 15.075 7.494-.082 13.781-5.57 15.158-12.742-2.821 3.053-6.813 4.997-11.231 5.048z" fill="url(#SVGID_10_)"/><path d="m239.787 156.085c-.025 8.49-6.875 15.387-15.303 15.424-8.426.037-15.194-6.786-15.096-15.26.097-8.473 6.966-15.41 15.32-15.464 8.355-.053 15.104 6.811 15.079 15.3z" fill="url(#SVGID_11_)"/><path d="m228.34 163.811c-8.413.035-15.169-6.789-15.073-15.266.01-.936.115-1.849.284-2.74-2.534 2.758-4.118 6.422-4.163 10.445-.097 8.474 6.671 15.296 15.096 15.26 7.496-.034 13.732-5.499 15.037-12.682-2.787 3.041-6.764 4.963-11.181 4.983z" fill="url(#SVGID_12_)"/><path d="m409.928 188.209c-15.291-.277-30.582-.513-45.873-.708-14.781 29.174-30.106 58.64-45.558 88.238 30.762-9.198 61.544-18.354 92.268-27.271-.056-20.086-.335-40.173-.837-60.259z" fill="url(#SVGID_13_)"/><path d="m102.072 188.209c-.502 20.086-.781 40.173-.837 60.259 87.733 24.932 175.932 51.774 262.82 76.032.793-45.666.793-91.333 0-136.999-87.328-1.112-174.655-.876-261.983.708z" fill="url(#SVGID_14_)"/><path d="m364.642 248.389c-20.454 22.804-41.132 45.876-61.697 68.996 20.259 22.919 40.231 45.66 59.583 68.003 15.075-.368 30.149-.814 45.224-1.338 2.134-45.194 3.137-90.388 3.012-135.582-15.373-.031-30.747-.057-46.122-.079z" fill="url(#SVGID_15_)"/><path d="m394.938 203.069c-10.216-.13-20.432-.245-30.648-.346-10.147 4.973-20.325 9.989-30.522 15.036 10.268 5.151 20.542 10.291 30.816 15.408 10.244.043 20.488.093 30.731.148-.075-10.082-.201-20.164-.377-30.246z" fill="url(#SVGID_16_)"/><path d="m117.061 203.069c-.176 10.082-.301 20.164-.377 30.247 82.633-.448 165.266-.497 247.899-.148-.059-10.148-.157-20.296-.294-30.444-82.409-.816-164.818-.7-247.228.345z" fill="url(#SVGID_17_)"/><path d="m186.817 248.344c-28.527.026-57.054.067-85.582.124-.126 45.194.878 90.388 3.012 135.582 73.197 2.544 146.393 3.248 219.59 2.11-44.271-45.236-90.954-91.919-137.02-137.816z" fill="url(#SVGID_18_)"/><path d="m186.817 248.344c.245 75.883 62.68 138.955 137.02 137.817 12.897-.2 25.794-.458 38.692-.773 1.498-45.666 2.202-91.333 2.114-136.999-59.275-.083-118.551-.098-177.826-.045z" fill="url(#SVGID_19_)"/><path d="m395.164 293.808c-10.233.092-20.466.175-30.698.247-10.282 5.146-20.559 10.311-30.824 15.482 10.167 5.026 20.307 10.018 30.413 14.962 10.194-.13 20.388-.278 30.582-.445.226-10.081.402-20.163.527-30.246z" fill="url(#SVGID_20_)"/><path d="m116.835 293.808c.126 10.082.302 20.164.527 30.247 30.992.506 61.984.843 92.975 1.01 3.014-12.486-1.349-20.055-15.552-30.749-25.983-.103-51.966-.273-77.95-.508z" fill="url(#SVGID_21_)"/><path d="m364.466 294.055c-56.56.399-113.12.486-169.681.26 3.915 10.929 9.175 21.246 15.552 30.749 51.239.276 102.478.087 153.717-.565.177-10.147.314-20.296.412-30.444z" fill="url(#SVGID_22_)"/><path d="m124.296 263.575c-4.246-.006-7.68 3.373-7.659 7.548s3.488 7.579 7.73 7.602c21.971.113 43.941.197 65.912.253 4.421-5.347 4.411-11.828-2.61-15.321-21.124-.018-42.248-.046-63.373-.082z" fill="url(#SVGID_23_)"/><path d="m302.112 271.348c.006-4.238-3.433-7.671-7.677-7.67-35.589.018-71.177.011-106.765-.021.583 5.198 1.456 10.311 2.61 15.321 34.712.089 69.423.107 104.135.055 4.242-.006 7.69-3.448 7.697-7.685z" fill="url(#SVGID_24_)"/><path d="m394.26 339.178c-10.167.204-20.333.385-30.499.543-10.274 5.233-20.527 10.472-30.751 15.705 10.042 4.964 20.04 9.881 29.988 14.739 10.094-.216 20.189-.463 30.283-.741.377-10.081.703-20.164.979-30.246z" fill="url(#SVGID_25_)"/><path d="m301.748 340.411c-.092 10.232-.2 20.463-.324 30.695 20.525-.187 41.05-.5 61.574-.94.293-10.148.548-20.296.763-30.444-20.671.322-41.342.552-62.013.689z" fill="url(#SVGID_26_)"/></g></svg>