<?xml version="1.0" encoding="utf-8"?>
<!-- Generator: Adobe Illustrator 16.0.0, SVG Export Plug-In . SVG Version: 6.00 Build 0)  -->
<!DOCTYPE svg PUBLIC "-//W3C//DTD SVG 1.1//EN" "http://www.w3.org/Graphics/SVG/1.1/DTD/svg11.dtd">
<svg version="1.1" id="Layer_1" xmlns="http://www.w3.org/2000/svg" xmlns:xlink="http://www.w3.org/1999/xlink" x="0px" y="0px"
	 width="26.661px" height="26.662px" viewBox="0 0 26.661 26.662" enable-background="new 0 0 26.661 26.662" xml:space="preserve">
<path fill="#067CB6" d="M26.661,21.186c0,3.025-2.451,5.477-5.477,5.477H5.477C2.452,26.662,0,24.211,0,21.186V5.477
	C0,2.453,2.452,0,5.477,0h15.708c3.025,0,5.477,2.453,5.477,5.477V21.186z"/>
<linearGradient id="SVGID_1_" gradientUnits="userSpaceOnUse" x1="13.3306" y1="4.3892" x2="13.3306" y2="22.2729">
	<stop  offset="0" style="stop-color:#FFFFFF"/>
	<stop  offset="0.4131" style="stop-color:#F5F5F5"/>
	<stop  offset="1" style="stop-color:#E0E0E0"/>
</linearGradient>
<path fill="url(#SVGID_1_)" d="M4.668,10.327h3.713v11.945H4.668V10.327z M6.525,4.389c1.186,0,2.15,0.965,2.15,2.154
	c0,1.188-0.965,2.151-2.15,2.151c-1.19,0-2.152-0.963-2.152-2.151C4.373,5.354,5.335,4.389,6.525,4.389L6.525,4.389z M10.709,22.272
	h3.712v-5.908c0-1.558,0.295-3.069,2.227-3.069c1.906,0,1.93,1.783,1.93,3.167v5.81h3.712v-6.552c0-3.215-0.694-5.688-4.454-5.688
	c-1.806,0-3.018,0.989-3.513,1.929h-0.051v-1.634h-3.563V22.272z"/>
</svg>
