
<svg version="1.1" id="Layer_1" xmlns="http://www.w3.org/2000/svg" xmlns:xlink="http://www.w3.org/1999/xlink" x="0px" y="0px"
	 width="59.527px" height="53.017px" viewBox="267.876 394.437 59.527 53.017"
	 enable-background="new 267.876 394.437 59.527 53.017" xml:space="preserve">
<title>speech-bubble-3-glyph</title>
<path fill="#fff" d="M317.574,415.975c0-11.875-11.147-21.538-24.849-21.538s-24.849,9.664-24.849,21.538c0,3.893,1.215,7.708,3.513,11.035
	l1.155,1.67l-0.964,1.787l-3.588,6.64l-0.036,0.066l-0.04,0.064c-0.019,0.032-0.033,0.065-0.041,0.102
	c0.035,0.077,0.098,0.138,0.176,0.169c0.032-0.013,0.063-0.028,0.092-0.046l0.065-0.039l0.067-0.036l7.029-3.79l1.663-0.896
	l1.619,0.974c4.167,2.508,9.057,3.837,14.139,3.837C306.427,437.512,317.574,427.851,317.574,415.975z M281.13,420.945
	c-2.745,0-4.97-2.225-4.97-4.97s2.225-4.97,4.97-4.97s4.971,2.225,4.971,4.97l0,0C286.101,418.72,283.875,420.945,281.13,420.945z
	 M292.727,420.945c-2.745,0-4.971-2.225-4.971-4.97s2.226-4.97,4.971-4.97c2.745,0,4.97,2.225,4.97,4.97l0,0
	C297.697,418.72,295.471,420.945,292.727,420.945c0,0-0.001,0-0.001,0H292.727z M304.323,420.945c-2.745,0-4.97-2.225-4.97-4.97
	s2.225-4.97,4.97-4.97s4.971,2.225,4.971,4.97l0,0C309.293,418.72,307.068,420.945,304.323,420.945
	C304.323,420.945,304.323,420.945,304.323,420.945L304.323,420.945z M305.98,415.975c0,0.915-0.742,1.657-1.657,1.657
	s-1.656-0.742-1.656-1.657c0-0.915,0.741-1.656,1.655-1.657C305.237,414.319,305.978,415.06,305.98,415.975L305.98,415.975z
	 M282.787,415.975c0,0.915-0.742,1.657-1.657,1.657s-1.657-0.742-1.657-1.657s0.742-1.657,1.657-1.657l0,0
	C282.045,414.319,282.785,415.061,282.787,415.975L282.787,415.975z M294.384,415.975c0,0.915-0.742,1.657-1.657,1.657
	s-1.657-0.742-1.657-1.657c0-0.915,0.741-1.656,1.655-1.657C293.641,414.317,294.384,415.06,294.384,415.975L294.384,415.975
	L294.384,415.975z M327.403,431.811c0,2.809-0.879,5.564-2.54,7.97l-1.153,1.67l0.964,1.787l1.735,3.219l-3.512-1.894l-1.663-0.896
	l-1.619,0.975c-3.055,1.839-6.644,2.813-10.378,2.813c-6.144,0-11.582-2.641-14.871-6.669c13.41-0.681,24.305-9.639,26.221-21.172
	C324.74,422.479,327.404,426.881,327.403,431.811L327.403,431.811z"/>
</svg>
