<?xml version="1.0" encoding="utf-8"?>
<!-- Generator: Adobe Illustrator 16.0.0, SVG Export Plug-In . SVG Version: 6.00 Build 0)  -->
<!DOCTYPE svg PUBLIC "-//W3C//DTD SVG 1.1//EN" "http://www.w3.org/Graphics/SVG/1.1/DTD/svg11.dtd">
<svg version="1.1" id="Layer_1" xmlns="http://www.w3.org/2000/svg" xmlns:xlink="http://www.w3.org/1999/xlink" x="0px" y="0px"
	 width="26.661px" height="26.662px" viewBox="0 0 26.661 26.662" enable-background="new 0 0 26.661 26.662" xml:space="preserve">
<path fill="#BC2026" d="M26.661,21.187c0,3.024-2.451,5.476-5.476,5.476H5.476C2.452,26.662,0,24.211,0,21.187V5.478
	C0,2.453,2.452,0,5.476,0h15.709c3.024,0,5.476,2.453,5.476,5.478V21.187z"/>
<g>
	<g id="UG8QpP_19_">
		<g>
			<g>
				<linearGradient id="SVGID_1_" gradientUnits="userSpaceOnUse" x1="13.7729" y1="5.335" x2="13.7729" y2="23.3208">
					<stop  offset="0" style="stop-color:#FFFFFF"/>
					<stop  offset="0.4131" style="stop-color:#F5F5F5"/>
					<stop  offset="1" style="stop-color:#E0E0E0"/>
				</linearGradient>
				<path fill-rule="evenodd" clip-rule="evenodd" fill="url(#SVGID_1_)" d="M12.534,17.612c0.924,1.061,2.46,1.458,3.806,1.047
					c0.278-0.085,0.555-0.185,0.821-0.3c0.521-0.225,1.01-0.52,1.431-0.903c1.2-1.095,1.853-2.473,2.155-4.04
					c0.395-2.036,0.037-3.935-1.249-5.568c-0.782-0.992-1.886-1.643-3.063-2.054c-1.599-0.559-3.395-0.625-5.01-0.104
					c-0.464,0.15-0.929,0.354-1.353,0.593c-1.513,0.86-2.678,2.246-3.153,3.929c-0.126,0.449-0.203,0.917-0.247,1.381
					c-0.108,1.123,0.14,2.234,0.65,3.234c0.081,0.158,0.182,0.303,0.258,0.463c0.18,0.381,0.454,0.758,0.788,1.015
					c0.155,0.12,0.346,0.224,0.549,0.21c0.282-0.02,0.353-0.289,0.43-0.522c0.085-0.258,0.114-0.529,0.171-0.794
					c0.05-0.24,0.057-0.385-0.093-0.598c-1.186-1.685-0.779-4.412,0.683-5.778c1.325-1.236,2.829-1.598,4.512-1.359
					c1.5,0.213,2.838,1.197,3.425,2.61c0.239,0.58,0.317,1.365,0.325,1.981c0.013,0.887-0.127,1.682-0.472,2.511
					c-0.293,0.71-0.735,1.396-1.354,1.863c-0.91,0.687-2.823,0.985-3.208-0.445c-0.095-0.352-0.106-0.81-0.036-1.166
					c0.18-0.898,0.524-1.751,0.731-2.641c0.109-0.475,0.183-0.952,0.053-1.436c-0.152-0.571-0.507-0.94-1.1-1.02
					c-0.63-0.087-1.222,0.109-1.589,0.6c-0.764,1.024-0.861,2.194-0.486,3.399c0.08,0.26,0.109,0.482,0.042,0.751
					c-0.361,1.463-0.675,2.938-1.051,4.396c-0.256,0.99-0.342,2.009-0.293,3.028c0.013,0.284,0.02,0.569,0.084,0.846
					c0.043,0.187,0.111,0.452,0.293,0.549c0.252,0.134,0.466-0.188,0.585-0.362c0.467-0.691,0.833-1.461,1.109-2.246
					c0.18-0.51,0.319-1.033,0.456-1.557C12.181,18.939,12.447,17.989,12.534,17.612z"/>
			</g>
		</g>
	</g>
</g>
</svg>
