<?xml version="1.0" encoding="utf-8"?>
<!-- Generator: Adobe Illustrator 16.0.0, SVG Export Plug-In . SVG Version: 6.00 Build 0)  -->
<!DOCTYPE svg PUBLIC "-//W3C//DTD SVG 1.1//EN" "http://www.w3.org/Graphics/SVG/1.1/DTD/svg11.dtd">
<svg version="1.1" id="Layer_1" xmlns="http://www.w3.org/2000/svg" xmlns:xlink="http://www.w3.org/1999/xlink" x="0px" y="0px"
	 width="26.662px" height="26.663px" viewBox="0 0 26.662 26.663" enable-background="new 0 0 26.662 26.663" xml:space="preserve">
<path fill="#D78F28" d="M26.662,21.187c0,3.023-2.451,5.477-5.477,5.477H5.476C2.451,26.663,0,24.21,0,21.187V5.478
	C0,2.453,2.451,0,5.476,0h15.709c3.025,0,5.477,2.453,5.477,5.478V21.187z"/>
<linearGradient id="SVGID_1_" gradientUnits="userSpaceOnUse" x1="13.4385" y1="4.5347" x2="13.4385" y2="22.146">
	<stop  offset="0" style="stop-color:#FFFFFF"/>
	<stop  offset="0.4131" style="stop-color:#F5F5F5"/>
	<stop  offset="1" style="stop-color:#E0E0E0"/>
</linearGradient>
<path fill="url(#SVGID_1_)" d="M23.169,12.857c0-1.398-1.135-2.533-2.533-2.533c-0.721,0-1.369,0.303-1.831,0.787
	c-1.317-0.8-2.97-1.314-4.776-1.411l0.94-3.613l1.978,0.522c0.092,0.958,0.898,1.706,1.88,1.706c1.044,0,1.89-0.846,1.89-1.89
	c0-1.043-0.846-1.89-1.89-1.89c-0.712,0-1.333,0.395-1.655,0.978l-2.475-0.683c-0.672-0.127-0.714,0.292-0.714,0.292l-1.241,4.58
	c-1.753,0.1-3.355,0.589-4.649,1.351c-0.462-0.496-1.118-0.807-1.851-0.807c-1.398,0-2.533,1.133-2.533,2.532
	c0,0.952,0.524,1.778,1.3,2.212c-0.061,0.301-0.093,0.609-0.093,0.924c0,3.443,3.797,6.232,8.484,6.232
	c4.684,0,8.482-2.789,8.482-6.232c0-0.274-0.026-0.545-0.074-0.811C22.617,14.679,23.169,13.833,23.169,12.857z M9.031,14.293
	c0-0.822,0.666-1.487,1.488-1.487s1.488,0.665,1.488,1.487c0,0.821-0.666,1.487-1.488,1.487S9.031,15.114,9.031,14.293z
	 M16.802,18.942c0,0-0.963,1.09-3.162,1.049c0,0-2.615,0.051-3.61-1.119c0,0-0.237-0.836,0.571-0.549c0,0,0.63,0.955,3.018,0.85
	c0,0,1.467,0.188,2.681-0.816c0,0,0.399-0.209,0.567,0.105C16.867,18.462,17.013,18.65,16.802,18.942z M16.384,15.78
	c-0.821,0-1.487-0.666-1.487-1.487c0-0.822,0.666-1.487,1.487-1.487c0.82,0,1.486,0.665,1.486,1.487
	C17.871,15.114,17.205,15.78,16.384,15.78z"/>
</svg>
