<?xml version="1.0" encoding="utf-8"?>
<!-- Generator: Adobe Illustrator 16.0.0, SVG Export Plug-In . SVG Version: 6.00 Build 0)  -->
<!DOCTYPE svg PUBLIC "-//W3C//DTD SVG 1.1//EN" "http://www.w3.org/Graphics/SVG/1.1/DTD/svg11.dtd">
<svg version="1.1" id="Layer_1" xmlns="http://www.w3.org/2000/svg" xmlns:xlink="http://www.w3.org/1999/xlink" x="0px" y="0px"
	 width="26.662px" height="26.663px" viewBox="0 0 26.662 26.663" enable-background="new 0 0 26.662 26.663" xml:space="preserve">
<path fill="#3DA7DE" d="M26.662,21.187c0,3.022-2.452,5.476-5.478,5.476H5.478C2.453,26.663,0,24.209,0,21.187V5.478
	C0,2.453,2.453,0,5.478,0h15.707c3.025,0,5.478,2.453,5.478,5.478V21.187z"/>
<linearGradient id="XMLID_2_" gradientUnits="userSpaceOnUse" x1="13.3521" y1="5.2227" x2="13.352" y2="21.4414">
	<stop  offset="0" style="stop-color:#FFFFFF"/>
	<stop  offset="0.4131" style="stop-color:#F5F5F5"/>
	<stop  offset="1" style="stop-color:#E0E0E0"/>
</linearGradient>
<path id="XMLID_970_" fill="url(#XMLID_2_)" d="M5.745,13.337c0,4.197,3.403,7.602,7.601,7.602c0.487,0,0.963-0.048,1.424-0.136
	c0.669,0.403,1.453,0.638,2.291,0.638c2.449-0.002,4.436-1.987,4.436-4.438c0-0.859-0.244-1.66-0.667-2.34
	c0.075-0.431,0.117-0.874,0.117-1.326c0-4.198-3.403-7.601-7.601-7.601c-0.478,0-0.945,0.046-1.4,0.13
	c-0.671-0.409-1.46-0.644-2.303-0.644c-2.45,0-4.437,1.986-4.437,4.436c0,0.854,0.242,1.651,0.66,2.328
	C5.788,12.425,5.745,12.876,5.745,13.337z M13.428,7.937c2.452,0.144,3.887,1.222,4.026,2.229c0.068,0.658-0.369,1.17-1.128,1.17
	c-1.108,0-1.222-1.479-3.131-1.479c-0.861,0-1.588,0.358-1.588,1.135c0,1.623,6.118,0.681,6.118,4.254c0,2.061-1.649,3.41-4.11,3.41
	c-2.165,0-4.341-0.98-4.33-2.671c0.003-0.51,0.384-0.978,0.89-0.978c1.275,0,1.263,1.895,3.293,1.895c1.424,0,1.91-0.777,1.91-1.318
	c0-1.956-6.155-0.757-6.155-4.435C9.223,9.159,10.858,7.786,13.428,7.937z"/>
</svg>
