<?xml version="1.0" encoding="utf-8"?>
<!-- Generator: Adobe Illustrator 16.0.0, SVG Export Plug-In . SVG Version: 6.00 Build 0)  -->
<!DOCTYPE svg PUBLIC "-//W3C//DTD SVG 1.1//EN" "http://www.w3.org/Graphics/SVG/1.1/DTD/svg11.dtd">
<svg version="1.1" id="Layer_1" xmlns="http://www.w3.org/2000/svg" xmlns:xlink="http://www.w3.org/1999/xlink" x="0px" y="0px"
	 width="26.662px" height="26.663px" viewBox="0 0 26.662 26.663" enable-background="new 0 0 26.662 26.663" xml:space="preserve">
<radialGradient id="SVGID_1_" cx="12.3823" cy="31.6577" r="41.0637" gradientTransform="matrix(0.8329 0 0 0.8329 2.1544 2.2567)" gradientUnits="userSpaceOnUse">
	<stop  offset="0.0918" style="stop-color:#F4EB28"/>
	<stop  offset="0.7296" style="stop-color:#F7EC21"/>
</radialGradient>
<path fill="url(#SVGID_1_)" d="M26.662,21.187c0,3.023-2.452,5.476-5.477,5.476H5.476C2.451,26.663,0,24.21,0,21.187V5.478
	C0,2.453,2.451,0,5.476,0h15.71c3.024,0,5.477,2.453,5.477,5.478V21.187z"/>
<g>
	<path fill="#1C1C1C" d="M8.648,7.404c0.033-0.076,0.07-0.148,0.105-0.222c0.225-0.448,0.51-0.866,0.858-1.226
		c0.298-0.307,0.635-0.57,1.006-0.782c0.317-0.183,0.66-0.328,1.013-0.434c0.287-0.088,0.585-0.149,0.885-0.187
		c0.288-0.036,0.58-0.047,0.871-0.044c0.29,0.004,0.574,0.013,0.861,0.054c0.311,0.046,0.617,0.117,0.913,0.216
		c0.358,0.119,0.704,0.278,1.024,0.477c0.371,0.23,0.707,0.514,0.997,0.84c0.343,0.388,0.618,0.833,0.831,1.304
		c0.396,0.887,0.293,2.495,0.211,3.785c-0.013,0.205-0.024,0.403-0.035,0.593l-0.003,0.08l0.052,0.062
		c0.022,0.023,0.229,0.238,0.688,0.257h0.007h0.007c0.201-0.003,0.398-0.048,0.589-0.112c0.173-0.058,0.341-0.149,0.519-0.188
		c0.189-0.042,0.527,0.047,0.659,0.197c0.125,0.146-0.013,0.334-0.129,0.427c-0.166,0.131-0.356,0.222-0.554,0.299
		c-0.068,0.026-0.156,0.054-0.259,0.087c-0.447,0.142-1.124,0.356-1.351,0.892c-0.127,0.303-0.094,0.658,0.104,1.06
		c0.081,0.188,1.359,3.067,4.232,3.54c0,0.014-0.003,0.027-0.012,0.045c-0.049,0.115-0.359,0.512-2.283,0.809
		c-0.304,0.047-0.377,0.385-0.463,0.777c-0.03,0.141-0.063,0.283-0.105,0.43c-0.014,0.044-0.016,0.047-0.063,0.047
		c-0.008,0-0.014,0-0.022,0c-0.087,0-0.215-0.018-0.366-0.047c-0.273-0.053-0.646-0.119-1.127-0.119
		c-0.266,0-0.541,0.022-0.817,0.069c-0.589,0.099-1.068,0.438-1.577,0.796c-0.311,0.221-0.625,0.439-0.965,0.613
		c-0.371,0.189-0.772,0.314-1.189,0.354c-0.094,0.008-0.187,0.01-0.278,0.015c-0.441,0.017-0.884-0.026-1.304-0.169
		c-0.371-0.127-0.711-0.322-1.035-0.537c-0.134-0.09-0.265-0.183-0.396-0.275c-0.508-0.357-0.987-0.697-1.576-0.796
		c-0.275-0.047-0.551-0.069-0.817-0.069c-0.478,0-0.853,0.072-1.126,0.126c-0.149,0.028-0.28,0.056-0.365,0.056
		c-0.07,0-0.071-0.004-0.086-0.056C6.731,20.3,6.701,20.156,6.67,20.015c-0.086-0.395-0.16-0.732-0.461-0.778
		c-1.928-0.298-2.237-0.695-2.286-0.81c-0.007-0.018-0.01-0.033-0.013-0.047c2.876-0.473,4.152-3.35,4.233-3.54
		c0.198-0.4,0.233-0.757,0.104-1.06c-0.227-0.536-0.902-0.75-1.351-0.892c-0.103-0.033-0.191-0.061-0.259-0.087
		c-0.264-0.104-1.076-0.486-0.549-0.811c0.114-0.069,0.24-0.114,0.374-0.105c0.142,0.008,0.268,0.078,0.399,0.128
		c0.26,0.098,0.535,0.169,0.814,0.169c0.499,0,0.721-0.232,0.745-0.259l0.052-0.062l-0.002-0.08
		c-0.012-0.188-0.022-0.389-0.036-0.592C8.355,9.896,8.254,8.291,8.648,7.404z M10.872,4.529c-0.538,0.237-1.024,0.56-1.44,0.956
		c-0.499,0.472-0.903,1.055-1.204,1.73c-0.442,0.991-0.338,2.659-0.255,4l0.002,0.003c0.009,0.143,0.018,0.293,0.026,0.439
		c-0.063,0.029-0.171,0.06-0.323,0.06c-0.232,0-0.461-0.064-0.674-0.147c-0.186-0.072-0.371-0.15-0.574-0.155
		c-0.193-0.004-0.395,0.065-0.561,0.162c-0.229,0.135-0.377,0.325-0.418,0.537c-0.025,0.14-0.025,0.416,0.281,0.695
		c0.169,0.153,0.416,0.295,0.736,0.422c0.084,0.033,0.184,0.064,0.288,0.098c0.366,0.117,0.921,0.293,1.066,0.632
		c0.071,0.172,0.041,0.398-0.096,0.673c-0.003,0.007-0.006,0.014-0.009,0.022c-0.166,0.391-0.4,0.76-0.646,1.102
		c-0.387,0.535-0.852,1.031-1.396,1.407c-0.285,0.196-0.591,0.368-0.913,0.497c-0.287,0.113-0.594,0.162-0.891,0.244
		c-0.24,0.067-0.439,0.225-0.424,0.498c0.004,0.068,0.021,0.136,0.049,0.203c0.094,0.222,0.312,0.409,0.669,0.574
		c0.434,0.201,1.086,0.371,1.933,0.504c0.043,0.082,0.088,0.287,0.118,0.428c0.03,0.148,0.064,0.302,0.113,0.464
		c0.052,0.177,0.186,0.388,0.53,0.388c0.129,0,0.28-0.03,0.453-0.063c0.256-0.049,0.603-0.118,1.038-0.118
		c0.239,0,0.491,0.021,0.742,0.064c0.483,0.08,0.901,0.374,1.384,0.716c0.042,0.028,0.082,0.058,0.123,0.087
		c0.299,0.209,0.604,0.412,0.93,0.576c0.365,0.182,0.755,0.31,1.157,0.367c0.235,0.031,0.467,0.037,0.7,0.035
		c0.26-0.004,0.518-0.018,0.77-0.066c0.394-0.077,0.768-0.223,1.12-0.414c0.162-0.088,0.319-0.184,0.474-0.287
		c0.143-0.096,0.298-0.188,0.431-0.298v-0.001c0.484-0.341,0.901-0.635,1.385-0.715c0.251-0.043,0.501-0.064,0.741-0.064
		c0.416,0,0.745,0.054,1.038,0.111c0.192,0.037,0.341,0.056,0.455,0.056h0.011h0.012c0.251,0,0.436-0.138,0.507-0.381
		c0.048-0.159,0.081-0.309,0.113-0.461c0.03-0.131,0.075-0.342,0.119-0.424c0.847-0.132,1.497-0.303,1.931-0.503
		c0.355-0.166,0.575-0.354,0.67-0.573c0.027-0.066,0.045-0.136,0.049-0.204c0.012-0.236-0.154-0.444-0.387-0.482
		c-2.643-0.436-3.834-3.15-3.883-3.266c-0.004-0.009-0.008-0.016-0.01-0.022c-0.137-0.275-0.167-0.501-0.094-0.673
		c0.145-0.339,0.697-0.515,1.064-0.632c0.106-0.034,0.206-0.065,0.288-0.098c0.36-0.143,0.619-0.297,0.79-0.473
		c0.203-0.209,0.242-0.409,0.239-0.54c-0.009-0.513-0.516-0.793-0.967-0.806c-0.22-0.006-0.488,0.071-0.688,0.15
		c-0.2,0.08-0.415,0.143-0.633,0.152c-0.127-0.005-0.215-0.033-0.273-0.06c0.008-0.123,0.016-0.25,0.023-0.383l0.005-0.058
		c0.083-1.342,0.189-3.01-0.253-4.002c-0.303-0.679-0.711-1.263-1.21-1.736c-0.419-0.396-0.903-0.719-1.444-0.956
		c-0.551-0.242-1.142-0.391-1.739-0.45c-0.229-0.022-0.466-0.04-0.694-0.04c-0.504,0-1.023,0.057-1.516,0.174
		C11.503,4.285,11.182,4.392,10.872,4.529z"/>
	<linearGradient id="SVGID_2_" gradientUnits="userSpaceOnUse" x1="13.3296" y1="4.5088" x2="13.3296" y2="22.1719">
		<stop  offset="0" style="stop-color:#FFFFFF"/>
		<stop  offset="0.4131" style="stop-color:#F5F5F5"/>
		<stop  offset="1" style="stop-color:#E0E0E0"/>
	</linearGradient>
	<path fill="url(#SVGID_2_)" d="M20.455,19.234c1.924-0.297,2.234-0.693,2.283-0.809c0.009-0.018,0.012-0.031,0.012-0.045
		c-2.873-0.473-4.151-3.352-4.232-3.54c-0.197-0.402-0.23-0.757-0.104-1.06c0.227-0.536,0.903-0.75,1.351-0.892
		c0.103-0.033,0.19-0.061,0.259-0.087c0.197-0.077,0.388-0.167,0.554-0.299c0.116-0.092,0.254-0.281,0.129-0.427
		c-0.132-0.149-0.47-0.239-0.659-0.197c-0.178,0.039-0.346,0.13-0.519,0.188c-0.19,0.064-0.388,0.109-0.589,0.112h-0.007h-0.007
		c-0.459-0.019-0.665-0.233-0.688-0.257l-0.052-0.062l0.003-0.08c0.011-0.19,0.022-0.389,0.035-0.593
		c0.082-1.291,0.185-2.898-0.211-3.785c-0.213-0.472-0.488-0.917-0.831-1.304c-0.29-0.327-0.626-0.61-0.997-0.84
		c-0.32-0.199-0.666-0.358-1.024-0.477c-0.296-0.099-0.603-0.17-0.913-0.216c-0.287-0.042-0.571-0.05-0.861-0.054
		c-0.291-0.003-0.583,0.008-0.871,0.044c-0.3,0.038-0.598,0.099-0.885,0.187c-0.353,0.106-0.695,0.251-1.013,0.434
		C10.247,5.386,9.91,5.649,9.612,5.956c-0.349,0.36-0.634,0.778-0.858,1.226C8.719,7.256,8.682,7.329,8.648,7.404
		c-0.395,0.887-0.293,2.492-0.212,3.784c0.014,0.203,0.024,0.403,0.036,0.592l0.002,0.08l-0.052,0.062
		c-0.024,0.027-0.246,0.259-0.745,0.259c-0.279,0-0.555-0.071-0.814-0.169c-0.132-0.05-0.258-0.12-0.399-0.128
		C6.33,11.875,6.204,11.92,6.09,11.99c-0.527,0.325,0.285,0.707,0.549,0.811c0.067,0.026,0.156,0.054,0.259,0.087
		c0.448,0.142,1.124,0.356,1.351,0.892c0.129,0.303,0.094,0.66-0.104,1.06c-0.081,0.19-1.357,3.067-4.233,3.54
		c0.003,0.014,0.006,0.029,0.013,0.047c0.049,0.114,0.358,0.512,2.286,0.81c0.301,0.046,0.375,0.384,0.461,0.778
		c0.031,0.141,0.062,0.285,0.105,0.433c0.015,0.052,0.016,0.056,0.086,0.056c0.085,0,0.216-0.027,0.365-0.056
		c0.273-0.054,0.648-0.126,1.126-0.126c0.267,0,0.542,0.022,0.817,0.069c0.589,0.099,1.068,0.438,1.576,0.796
		c0.132,0.093,0.263,0.186,0.396,0.275c0.324,0.215,0.664,0.41,1.035,0.537c0.42,0.143,0.862,0.186,1.304,0.169
		c0.092-0.005,0.185-0.007,0.278-0.015c0.417-0.039,0.818-0.164,1.189-0.354c0.34-0.174,0.654-0.393,0.965-0.613
		c0.509-0.357,0.988-0.697,1.577-0.796c0.276-0.047,0.552-0.069,0.817-0.069c0.48,0,0.854,0.066,1.127,0.119
		c0.151,0.029,0.279,0.047,0.366,0.047c0.009,0,0.015,0,0.022,0c0.047,0,0.049-0.003,0.063-0.047
		c0.043-0.146,0.075-0.289,0.105-0.43C20.078,19.619,20.151,19.281,20.455,19.234z"/>
</g>
</svg>
