<?xml version="1.0" encoding="utf-8"?>
<!-- Generator: Adobe Illustrator 16.0.0, SVG Export Plug-In . SVG Version: 6.00 Build 0)  -->
<!DOCTYPE svg PUBLIC "-//W3C//DTD SVG 1.1//EN" "http://www.w3.org/Graphics/SVG/1.1/DTD/svg11.dtd">
<svg version="1.1" id="Layer_1" xmlns="http://www.w3.org/2000/svg" xmlns:xlink="http://www.w3.org/1999/xlink" x="0px" y="0px"
	 width="26.662px" height="26.662px" viewBox="0 0 26.662 26.662" enable-background="new 0 0 26.662 26.662" xml:space="preserve">
<path id="XMLID_886_" fill="#48B75B" d="M13.331,0.286c-6.962,0-12.606,5.84-12.606,13.044c0,7.205,5.645,13.044,12.606,13.044
	s12.606-5.84,12.606-13.044C25.937,6.126,20.292,0.286,13.331,0.286z M19.13,19.134c-0.253,0.393-0.693,0.523-1.073,0.262
	c-2.962-1.893-6.681-2.283-11.092-1.238c-0.441,0.129-0.821-0.197-0.947-0.588c-0.125-0.457,0.19-0.846,0.567-0.979
	c4.791-1.109,8.951-0.652,12.229,1.434C19.256,18.222,19.318,18.744,19.13,19.134z M20.643,15.546
	c-0.316,0.459-0.884,0.654-1.325,0.328c-3.402-2.152-8.572-2.805-12.542-1.501c-0.505,0.13-1.072-0.13-1.197-0.65
	c-0.127-0.522,0.125-1.11,0.629-1.24c4.601-1.435,10.275-0.718,14.183,1.761C20.769,14.438,20.958,15.091,20.643,15.546z
	 M20.769,11.895c-4.034-2.478-10.779-2.738-14.625-1.5c-0.629,0.196-1.26-0.196-1.449-0.783c-0.19-0.651,0.189-1.304,0.756-1.5
	c4.475-1.369,11.851-1.109,16.514,1.761c0.568,0.326,0.757,1.109,0.441,1.696C22.093,12.026,21.335,12.222,20.769,11.895z"/>
</svg>
