<?xml version="1.0" encoding="utf-8"?>
<!-- Generator: Adobe Illustrator 16.0.0, SVG Export Plug-In . SVG Version: 6.00 Build 0)  -->
<!DOCTYPE svg PUBLIC "-//W3C//DTD SVG 1.1//EN" "http://www.w3.org/Graphics/SVG/1.1/DTD/svg11.dtd">
<svg version="1.1" id="Layer_1" xmlns="http://www.w3.org/2000/svg" xmlns:xlink="http://www.w3.org/1999/xlink" x="0px" y="0px"
	 width="26.662px" height="26.663px" viewBox="0 0 26.662 26.663" enable-background="new 0 0 26.662 26.663" xml:space="preserve">
<path fill="#2D98D5" d="M26.662,21.187c0,3.023-2.452,5.476-5.476,5.476H5.475C2.451,26.663,0,24.21,0,21.187V5.478
	C0,2.453,2.451,0,5.475,0h15.711c3.023,0,5.476,2.453,5.476,5.478V21.187z"/>
<linearGradient id="SVGID_1_" gradientUnits="userSpaceOnUse" x1="12.8853" y1="6.2788" x2="12.8853" y2="22.0908">
	<stop  offset="0" style="stop-color:#FFFFFF"/>
	<stop  offset="0.4131" style="stop-color:#F5F5F5"/>
	<stop  offset="1" style="stop-color:#E0E0E0"/>
</linearGradient>
<path fill="url(#SVGID_1_)" d="M4.334,12.806l16.725-6.448c0.776-0.281,1.454,0.189,1.203,1.363l0.001-0.001l-2.848,13.417
	c-0.211,0.951-0.776,1.182-1.567,0.734l-4.336-3.197l-2.092,2.016c-0.232,0.231-0.428,0.427-0.875,0.427l0.309-4.413l8.037-7.261
	c0.35-0.308-0.078-0.481-0.539-0.175l-9.934,6.253l-4.281-1.335C3.208,13.889,3.188,13.254,4.334,12.806L4.334,12.806z
	 M4.334,12.806"/>
</svg>
