<?xml version="1.0" encoding="utf-8"?>
<!-- Generator: Adobe Illustrator 16.0.0, SVG Export Plug-In . SVG Version: 6.00 Build 0)  -->
<!DOCTYPE svg PUBLIC "-//W3C//DTD SVG 1.1//EN" "http://www.w3.org/Graphics/SVG/1.1/DTD/svg11.dtd">
<svg version="1.1" id="Layer_1" xmlns="http://www.w3.org/2000/svg" xmlns:xlink="http://www.w3.org/1999/xlink" x="0px" y="0px"
	 width="26.662px" height="26.662px" viewBox="0 0 26.662 26.662" enable-background="new 0 0 26.662 26.662" xml:space="preserve">
<path fill="#1C1C1C" d="M26.662,21.186c0,3.024-2.453,5.476-5.477,5.476H5.477C2.452,26.662,0,24.21,0,21.186V5.478
	C0,2.453,2.452,0,5.477,0h15.709c3.023,0,5.477,2.453,5.477,5.478V21.186z"/>
<g>
	<path fill="#E62142" d="M5.692,17.109c0,3.233,2.63,5.863,5.862,5.863c3.233,0,5.863-2.63,5.863-5.863v-6.56l0.848,0.452
		c1.073,0.573,2.242,0.863,3.473,0.863V8.778c-2.383,0-4.32-1.938-4.32-4.32h-3.086v12.651c0,1.531-1.245,2.777-2.777,2.777
		c-1.531,0-2.776-1.246-2.776-2.777s1.245-2.776,2.776-2.776v-3.086C8.322,11.247,5.692,13.876,5.692,17.109z"/>
	<path fill="#5BCBF0" d="M4.924,16.341c0,3.232,2.63,5.863,5.863,5.863c3.232,0,5.862-2.631,5.862-5.863V9.781l0.848,0.452
		c1.073,0.572,2.242,0.863,3.473,0.863V8.01c-2.382,0-4.32-1.938-4.32-4.32h-3.085v12.651c0,1.531-1.246,2.777-2.777,2.777
		S8.01,17.873,8.01,16.341s1.246-2.777,2.777-2.777v-3.085C7.554,10.479,4.924,13.108,4.924,16.341z"/>
	<linearGradient id="SVGID_1_" gradientUnits="userSpaceOnUse" x1="13.3306" y1="4.458" x2="13.3306" y2="22.2051">
		<stop  offset="0" style="stop-color:#FFFFFF"/>
		<stop  offset="0.4131" style="stop-color:#F5F5F5"/>
		<stop  offset="1" style="stop-color:#E0E0E0"/>
	</linearGradient>
	<path fill="url(#SVGID_1_)" d="M20.97,11.096V8.709c-1.069-0.192-2.004-0.78-2.645-1.606c-0.826-0.642-1.414-1.575-1.607-2.645
		h-2.386v12.651c0,1.531-1.245,2.777-2.777,2.777c-0.961,0-1.811-0.491-2.309-1.236c-0.745-0.498-1.236-1.348-1.236-2.309
		c0-1.531,1.246-2.777,2.777-2.777v-2.267c-2.871,0.377-5.095,2.84-5.095,5.812c0,1.422,0.509,2.727,1.353,3.742
		c1.016,0.845,2.32,1.354,3.742,1.354c3.232,0,5.862-2.631,5.862-5.863V9.781l0.848,0.452C18.57,10.805,19.739,11.096,20.97,11.096z
		"/>
</g>
</svg>
