<?xml version="1.0" encoding="utf-8"?>
<!-- Generator: Adobe Illustrator 16.0.0, SVG Export Plug-In . SVG Version: 6.00 Build 0)  -->
<!DOCTYPE svg PUBLIC "-//W3C//DTD SVG 1.1//EN" "http://www.w3.org/Graphics/SVG/1.1/DTD/svg11.dtd">
<svg version="1.1" id="Layer_1" xmlns="http://www.w3.org/2000/svg" xmlns:xlink="http://www.w3.org/1999/xlink" x="0px" y="0px"
	 width="26.662px" height="26.663px" viewBox="0 0 26.662 26.663" enable-background="new 0 0 26.662 26.663" xml:space="preserve">
<path fill="#2E465C" d="M26.662,21.187c0,3.022-2.452,5.476-5.478,5.476H5.478C2.453,26.663,0,24.209,0,21.187V5.478
	C0,2.453,2.453,0,5.478,0h15.707c3.025,0,5.478,2.453,5.478,5.478V21.187z"/>
<linearGradient id="XMLID_2_" gradientUnits="userSpaceOnUse" x1="13.5532" y1="4.5513" x2="13.5532" y2="22.4785">
	<stop  offset="0" style="stop-color:#FFFFFF"/>
	<stop  offset="0.4131" style="stop-color:#F5F5F5"/>
	<stop  offset="1" style="stop-color:#E0E0E0"/>
</linearGradient>
<path id="XMLID_973_" fill="url(#XMLID_2_)" d="M10.006,18.189c0,0.818,0.085,1.443,0.257,1.875c0.171,0.43,0.48,0.838,0.924,1.221
	c0.444,0.383,0.981,0.678,1.611,0.883c0.629,0.207,1.353,0.311,2.172,0.311c0.722,0,1.393-0.072,2.014-0.217
	c0.619-0.145,1.313-0.396,2.08-0.758v-2.818c-0.898,0.59-1.801,0.885-2.709,0.885c-0.51,0-0.965-0.119-1.361-0.357
	c-0.299-0.176-0.503-0.411-0.614-0.706c-0.11-0.296-0.165-0.962-0.165-2.002v-4.599h4.257V9.092h-4.257V4.551h-2.539
	c-0.115,0.924-0.324,1.684-0.626,2.282c-0.302,0.598-0.704,1.11-1.205,1.537c-0.5,0.426-1.101,0.753-1.803,0.982v2.554h1.963V18.189
	z"/>
</svg>
