<?xml version="1.0" encoding="utf-8"?>
<!-- Generator: Adobe Illustrator 16.0.0, SVG Export Plug-In . SVG Version: 6.00 Build 0)  -->
<!DOCTYPE svg PUBLIC "-//W3C//DTD SVG 1.1//EN" "http://www.w3.org/Graphics/SVG/1.1/DTD/svg11.dtd">
<svg version="1.1" id="Layer_1" xmlns="http://www.w3.org/2000/svg" xmlns:xlink="http://www.w3.org/1999/xlink" x="0px" y="0px"
	 width="26.662px" height="26.663px" viewBox="0 0 26.662 26.663" enable-background="new 0 0 26.662 26.663" xml:space="preserve">
<path fill="#5171B7" d="M26.662,21.187c0,3.023-2.452,5.476-5.477,5.476H5.476C2.451,26.663,0,24.21,0,21.187V5.478
	C0,2.453,2.451,0,5.476,0h15.71c3.024,0,5.477,2.453,5.477,5.478V21.187z"/>
<linearGradient id="SVGID_1_" gradientUnits="userSpaceOnUse" x1="13.5093" y1="10.4463" x2="13.5093" y2="21.0466">
	<stop  offset="0" style="stop-color:#FFFFFF"/>
	<stop  offset="0.4131" style="stop-color:#F5F5F5"/>
	<stop  offset="1" style="stop-color:#E0E0E0"/>
</linearGradient>
<path fill="url(#SVGID_1_)" d="M6.72,8.552H3.97c0,0-1.064-0.104-0.674,0.778c0.389,0.882,2.568,5.422,4.073,7.135
	s3.295,3.191,6.227,3.217c1.479-0.052,1.635-0.182,1.635-1.297c0-1.116,0.752-2.049,1.764-0.934s1.141,1.322,1.53,1.66
	c0.389,0.338,0.728,0.597,1.946,0.597s2.516-0.026,2.516-0.026s1.557-0.232,0.389-1.635c-1.166-1.4-2.438-2.517-2.567-2.646
	c-0.13-0.13-0.831-0.856-0.104-1.687c0.727-0.83,2.439-3.087,2.881-3.995c0.44-0.908,0.155-1.116-0.623-1.116s-3.243,0-3.243,0
	S18.992,8.37,18.68,9.278c-0.311,0.907-1.115,2.828-2.465,4.15c-0.467,0.441-0.984,0.26-1.012-0.959
	c-0.025-1.219,0.027-3.295,0.027-3.295s0.103-1.142-1.297-1.167c-1.402-0.026-2.621,0.025-2.621,0.025S10.144,8.111,9.99,8.811
	c0.596-0.051,1.167,0.337,1.245,1.349c0.078,1.012,0.13,2.464-0.078,2.984c-0.208,0.519-0.545,0.907-1.427-0.26
	c-0.881-1.167-1.739-2.802-1.92-3.269C7.628,9.148,7.369,8.629,6.72,8.552z"/>
</svg>
