<?xml version="1.0" encoding="utf-8"?>
<!-- Generator: Adobe Illustrator 16.0.0, SVG Export Plug-In . SVG Version: 6.00 Build 0)  -->
<!DOCTYPE svg PUBLIC "-//W3C//DTD SVG 1.1//EN" "http://www.w3.org/Graphics/SVG/1.1/DTD/svg11.dtd">
<svg version="1.1" id="Layer_1" xmlns="http://www.w3.org/2000/svg" xmlns:xlink="http://www.w3.org/1999/xlink" x="0px" y="0px"
	 width="26.663px" height="26.662px" viewBox="0 0 26.663 26.662" enable-background="new 0 0 26.663 26.662" xml:space="preserve">
<path fill="#19A94A" d="M26.663,21.186c0,3.023-2.452,5.477-5.478,5.477H5.479C2.453,26.662,0,24.209,0,21.186V5.478
	C0,2.453,2.453,0,5.479,0h15.707c3.025,0,5.478,2.453,5.478,5.478V21.186z"/>
<g>
	<linearGradient id="SVGID_1_" gradientUnits="userSpaceOnUse" x1="10.4971" y1="5.0361" x2="10.4971" y2="18.6392">
		<stop  offset="0" style="stop-color:#FFFFFF"/>
		<stop  offset="0.4131" style="stop-color:#F5F5F5"/>
		<stop  offset="1" style="stop-color:#E0E0E0"/>
	</linearGradient>
	<path fill="url(#SVGID_1_)" d="M12.428,12.316c2.027-2.027,5.266-1.922,5.266-1.922s-1.171-5.829-7.877-5.327
		C3.11,5.568,1.127,13.214,6.014,16.265l-0.626,1.942c0,0-0.313,0.752,0.481,0.271c0.793-0.48,2.088-1.211,2.088-1.211
		s1.316,0.563,2.883,0.375C10.465,16.87,10.402,14.342,12.428,12.316z M13.41,8.493c0.462,0,0.836,0.375,0.836,0.835
		c0,0.462-0.374,0.836-0.836,0.836c-0.461,0-0.835-0.374-0.835-0.836C12.575,8.867,12.949,8.493,13.41,8.493z M7.707,10.164
		c-0.461,0-0.836-0.374-0.836-0.836c0-0.461,0.375-0.835,0.836-0.835s0.836,0.375,0.836,0.835C8.543,9.79,8.168,10.164,7.707,10.164
		z"/>
	<linearGradient id="SVGID_2_" gradientUnits="userSpaceOnUse" x1="17.3828" y1="10.9155" x2="17.3828" y2="22.1851">
		<stop  offset="0" style="stop-color:#FFFFFF"/>
		<stop  offset="0.4131" style="stop-color:#F5F5F5"/>
		<stop  offset="1" style="stop-color:#E0E0E0"/>
	</linearGradient>
	<path fill="url(#SVGID_2_)" d="M23.584,16.139c-0.021-2.632-2.862-6.163-7.896-4.993c-5.227,1.215-6.023,7.482-1.776,9.568
		c3.614,1.776,6.017,0.376,6.017,0.376l1.588,0.94c0,0,0.586,0.46,0.418-0.21c-0.167-0.668-0.459-1.607-0.459-1.607
		S23.604,18.732,23.584,16.139z M15.186,14.99c-0.438,0-0.793-0.355-0.793-0.794s0.355-0.794,0.793-0.794
		c0.439,0,0.795,0.355,0.795,0.794S15.625,14.99,15.186,14.99z M19.553,14.99c-0.439,0-0.795-0.355-0.795-0.794
		s0.355-0.794,0.795-0.794c0.438,0,0.793,0.355,0.793,0.794S19.99,14.99,19.553,14.99z"/>
</g>
</svg>
