<?xml version="1.0" encoding="utf-8"?>
<!-- Generator: Adobe Illustrator 16.0.0, SVG Export Plug-In . SVG Version: 6.00 Build 0)  -->
<!DOCTYPE svg PUBLIC "-//W3C//DTD SVG 1.1//EN" "http://www.w3.org/Graphics/SVG/1.1/DTD/svg11.dtd">
<svg version="1.1" id="Layer_1" xmlns="http://www.w3.org/2000/svg" xmlns:xlink="http://www.w3.org/1999/xlink" x="0px" y="0px"
	 width="26.662px" height="26.662px" viewBox="0 0 26.662 26.662" enable-background="new 0 0 26.662 26.662" xml:space="preserve">
<radialGradient id="SVGID_1_" cx="12.4082" cy="35.7427" r="41.1817" gradientTransform="matrix(0.8329 0 0 0.8329 2.0941 2.2551)" gradientUnits="userSpaceOnUse">
	<stop  offset="0.2602" style="stop-color:#3DB54A"/>
	<stop  offset="0.7602" style="stop-color:#63BD66"/>
</radialGradient>
<path fill="url(#SVGID_1_)" d="M26.662,21.185c0,3.024-2.452,5.477-5.477,5.477H5.477C2.452,26.662,0,24.209,0,21.185V5.477
	C0,2.451,2.452,0,5.477,0h15.709c3.024,0,5.477,2.451,5.477,5.477V21.185z"/>
<linearGradient id="SVGID_2_" gradientUnits="userSpaceOnUse" x1="13.5103" y1="3.501" x2="13.5103" y2="23.1602">
	<stop  offset="0" style="stop-color:#FFFFFF"/>
	<stop  offset="0.4131" style="stop-color:#F5F5F5"/>
	<stop  offset="1" style="stop-color:#E0E0E0"/>
</linearGradient>
<path fill="url(#SVGID_2_)" d="M13.51,3.501c-5.377,0-9.736,4.359-9.736,9.737c0,1.817,0.498,3.516,1.365,4.971L3.91,23.16
	l4.88-1.405c1.399,0.776,3.007,1.221,4.72,1.221c5.379,0,9.737-4.36,9.737-9.737C23.247,7.86,18.889,3.501,13.51,3.501z
	 M13.621,21.359c-1.701,0-3.279-0.527-4.58-1.425l-2.779,0.801l0.711-2.862c-0.904-1.307-1.436-2.891-1.436-4.598
	c0-4.465,3.619-8.084,8.084-8.084c4.464,0,8.083,3.619,8.083,8.084S18.085,21.359,13.621,21.359z M14.723,15.7
	c0.225-0.234,0.453-0.468,0.676-0.704c0.17-0.182,0.352-0.413,0.604-0.482c0.344-0.094,0.687,0.123,0.984,0.27
	c0.345,0.17,0.613,0.332,0.916,0.505c0.234,0.136,0.435,0.323,0.454,0.608c0.02,0.293-0.062,0.672-0.181,0.941
	c-0.551,1.25-2.607,0.956-2.607,0.956c-5.732-1.065-6.871-6.246-6.871-6.246C8.109,9.71,10.02,8.792,10.02,8.792
	c0.328-0.157,0.742-0.103,0.984,0.154c0.18,0.19,0.338,0.643,0.461,0.967c0.068,0.179,0.14,0.356,0.209,0.533
	c0.107,0.276,0.215,0.579,0.201,0.883c-0.015,0.316-0.299,0.529-0.488,0.749c-0.112,0.13-0.225,0.26-0.338,0.389
	C11.82,14.633,14.723,15.7,14.723,15.7z"/>
</svg>
