<?xml version="1.0" encoding="utf-8"?>
<!-- Generator: Adobe Illustrator 16.0.0, SVG Export Plug-In . SVG Version: 6.00 Build 0)  -->
<!DOCTYPE svg PUBLIC "-//W3C//DTD SVG 1.1//EN" "http://www.w3.org/Graphics/SVG/1.1/DTD/svg11.dtd">
<svg version="1.1" id="Layer_1" xmlns="http://www.w3.org/2000/svg" xmlns:xlink="http://www.w3.org/1999/xlink" x="0px" y="0px"
	 width="26.662px" height="26.662px" viewBox="0 0 26.662 26.662" enable-background="new 0 0 26.662 26.662" xml:space="preserve">
<path fill="#84368C" d="M26.662,21.185c0,3.024-2.453,5.478-5.477,5.478H5.477C2.452,26.662,0,24.209,0,21.185V5.477
	C0,2.452,2.452,0,5.477,0h15.708c3.023,0,5.477,2.452,5.477,5.477V21.185z"/>
<linearGradient id="SVGID_1_" gradientUnits="userSpaceOnUse" x1="13.3301" y1="6.9292" x2="13.3301" y2="21.8501">
	<stop  offset="0" style="stop-color:#FFFFFF"/>
	<stop  offset="0.4131" style="stop-color:#F5F5F5"/>
	<stop  offset="1" style="stop-color:#E0E0E0"/>
</linearGradient>
<path fill="url(#SVGID_1_)" d="M19.259,10.639c-0.076,0.021-0.234,0.152-0.477,0.386l-0.852,0.889l-1.066,1.18
	c-0.371,0.421-0.707,0.842-1.018,1.258c-0.311,0.412-0.585,0.777-0.818,1.096c-0.238,0.315-0.387,0.558-0.455,0.732
	c-0.015,0.087-0.023,0.338-0.023,0.749c0,0.416,0.007,0.869,0.012,1.359c0.01,0.492,0.016,0.951,0.024,1.391
	c0.009,0.434,0.017,0.723,0.034,0.868c0.06,0.021,0.211,0.03,0.457,0.03h0.77c0.278,0,0.539,0.01,0.784,0.018
	c0.246,0.013,0.413,0.031,0.504,0.058l-0.023,1.161c-0.088,0-0.287-0.004-0.601-0.018c-0.311-0.009-0.676-0.014-1.088-0.014h-2.458
	c-0.167,0-0.419,0.005-0.749,0.014c-0.328,0.014-0.68,0.023-1.058,0.035c-0.376,0.01-0.731,0.018-1.064,0.018H9.345l0.134-1.104
	h0.465c0.226,0,0.455-0.004,0.688-0.014c0.234-0.004,0.458-0.038,0.667-0.092c0.213-0.057,0.366-0.158,0.465-0.304
	c0.044-0.064,0.073-0.289,0.088-0.674c0.014-0.383,0.021-0.825,0.021-1.316c0-0.495,0.005-0.967,0.008-1.416
	c0.006-0.445,0.012-0.749,0.021-0.898c0.018-0.092-0.073-0.314-0.275-0.67c-0.202-0.356-0.448-0.795-0.74-1.312l-0.951-1.684
	L8.95,10.622L8.045,9.24C7.771,8.827,7.554,8.546,7.399,8.398H5.023V6.929h7.828v0.11h0.021l-0.021,0.254v1.105H10.46l0.898,1.685
	l0.919,1.722l0.815,1.526l0.635,1.197l3.187-4.043h-1.938l-0.249-1.469h6.909l-0.055,0.097h0.035l-0.516,0.982H21.08l-0.205,0.39
	h-1.205c-0.074,0.048-0.146,0.079-0.217,0.092C19.382,10.6,19.318,10.617,19.259,10.639L19.259,10.639z"/>
</svg>
